<?xml version="1.0" encoding="UTF-8"?>
<!DOCTYPE svg PUBLIC "-//W3C//DTD SVG 1.1//EN" "http://www.w3.org/Graphics/SVG/1.1/DTD/svg11.dtd">
<svg xmlns="http://www.w3.org/2000/svg" version="1.1" width="512px" height="512px" style="shape-rendering:geometricPrecision; text-rendering:geometricPrecision; image-rendering:optimizeQuality; fill-rule:evenodd; clip-rule:evenodd" xmlns:xlink="http://www.w3.org/1999/xlink">
<g><path style="opacity:0.024" fill="#43443f" d="M 15.5,0.5 C 17.1992,0.339822 18.8659,0.506489 20.5,1C 14.6667,8.16667 8.16667,14.6667 1,20.5C 0.143313,17.4495 0.809979,14.7828 3,12.5C 7.06209,8.26879 11.2288,4.26879 15.5,0.5 Z"/></g>
<g><path style="opacity:0.034" fill="#43443f" d="M 35.5,0.5 C 37.1992,0.339822 38.8659,0.506489 40.5,1C 28,14.8333 14.8333,28 1,40.5C 0.143313,37.4495 0.809979,34.7828 3,32.5C 13.7284,21.604 24.5617,10.9373 35.5,0.5 Z"/></g>
<g><path style="opacity:0.037" fill="#43443f" d="M 55.5,0.5 C 57.1992,0.339822 58.8659,0.506489 60.5,1C 41.3333,21.5 21.5,41.3333 1,60.5C 0.143313,57.4495 0.809979,54.7828 3,52.5C 20.395,34.9377 37.895,17.6044 55.5,0.5 Z"/></g>
<g><path style="opacity:0.039" fill="#43443f" d="M 75.5,0.5 C 77.1992,0.339822 78.8659,0.506489 80.5,1C 54.6667,28.1667 28.1667,54.6667 1,80.5C 0.143313,77.4495 0.809979,74.7828 3,72.5C 27.0616,48.2713 51.2283,24.2713 75.5,0.5 Z"/></g>
<g><path style="opacity:0.04" fill="#43443f" d="M 95.5,0.5 C 97.1992,0.339822 98.8659,0.506489 100.5,1C 68,34.8333 34.8333,68 1,100.5C 0.143313,97.4495 0.809979,94.7828 3,92.5C 33.7283,61.6047 64.5616,30.938 95.5,0.5 Z"/></g>
<g><path style="opacity:0.04" fill="#43443f" d="M 115.5,0.5 C 117.199,0.339822 118.866,0.506489 120.5,1C 81.3333,41.5 41.5,81.3333 1,120.5C 0.143313,117.449 0.809979,114.783 3,112.5C 40.3949,74.9381 77.8949,37.6048 115.5,0.5 Z"/></g>
<g><path style="opacity:0.041" fill="#43443f" d="M 135.5,0.5 C 137.199,0.339822 138.866,0.506489 140.5,1C 94.6667,48.1667 48.1667,94.6667 1,140.5C 0.143313,137.449 0.809979,134.783 3,132.5C 47.0616,88.2715 91.2283,44.2715 135.5,0.5 Z"/></g>
<g><path style="opacity:0.041" fill="#43443f" d="M 155.5,0.5 C 157.199,0.339822 158.866,0.506489 160.5,1C 108,54.8333 54.8333,108 1,160.5C 0.143313,157.449 0.809979,154.783 3,152.5C 53.7283,101.605 104.562,50.9382 155.5,0.5 Z"/></g>
<g><path style="opacity:0.041" fill="#43443f" d="M 175.5,0.5 C 177.199,0.339822 178.866,0.506489 180.5,1C 121.333,61.5 61.5,121.333 1,180.5C 0.143313,177.449 0.809979,174.783 3,172.5C 60.3949,114.938 117.895,57.6049 175.5,0.5 Z"/></g>
<g><path style="opacity:0.041" fill="#43443f" d="M 195.5,0.5 C 197.199,0.339822 198.866,0.506489 200.5,1C 134.667,68.1667 68.1667,134.667 1,200.5C 0.143313,197.449 0.809979,194.783 3,192.5C 67.0616,128.272 131.228,64.2716 195.5,0.5 Z"/></g>
<g><path style="opacity:0.042" fill="#43443f" d="M 124.5,98.5 C 123.833,98.5 123.5,98.8333 123.5,99.5C 122.833,99.5 122.5,99.8333 122.5,100.5C 121.833,100.5 121.5,100.833 121.5,101.5C 120.833,101.5 120.5,101.833 120.5,102.5C 119.833,102.5 119.5,102.833 119.5,103.5C 118.833,103.5 118.5,103.833 118.5,104.5C 117.833,104.5 117.5,104.833 117.5,105.5C 113.167,109.167 109.167,113.167 105.5,117.5C 104.833,117.5 104.5,117.833 104.5,118.5C 103.833,118.5 103.5,118.833 103.5,119.5C 102.833,119.5 102.5,119.833 102.5,120.5C 101.833,120.5 101.5,120.833 101.5,121.5C 100.833,121.5 100.5,121.833 100.5,122.5C 99.8333,122.5 99.5,122.833 99.5,123.5C 98.8333,123.5 98.5,123.833 98.5,124.5C 66.1734,156.66 33.6734,188.66 1,220.5C 0.143313,217.449 0.809979,214.783 3,212.5C 72.8333,142.667 142.667,72.8333 212.5,3C 214.783,0.809979 217.449,0.143313 220.5,1C 188.66,33.6734 156.66,66.1734 124.5,98.5 Z"/></g>
<g><path style="opacity:0.041" fill="#43433f" d="M 175.5,67.5 C 174.833,67.5 174.5,67.8333 174.5,68.5C 172.5,69.5 170.5,70.5 168.5,71.5C 166.02,72.242 163.687,73.242 161.5,74.5C 185.66,49.5067 210.327,25.0067 235.5,1C 237.167,0.333333 238.833,0.333333 240.5,1C 218.993,23.3398 197.327,45.5064 175.5,67.5 Z"/></g>
<g><path style="opacity:0.04" fill="#43433f" d="M 205.5,57.5 C 204.833,57.5 204.5,57.8333 204.5,58.5C 201.5,59.1667 198.5,59.8333 195.5,60.5C 214.994,40.1731 234.994,20.3398 255.5,1C 257.167,0.333333 258.833,0.333333 260.5,1C 242.327,20.0062 223.994,38.8396 205.5,57.5 Z"/></g>
<g><path style="opacity:0.04" fill="#43443f" d="M 229.5,53.5 C 226.833,53.8333 224.167,54.1667 221.5,54.5C 238.298,37.2014 255.298,20.0348 272.5,3C 274.783,0.809979 277.449,0.143313 280.5,1C 263.66,18.6728 246.66,36.1728 229.5,53.5 Z"/></g>
<g><path style="opacity:0.04" fill="#43433f" d="M 251.5,51.5 C 248.833,51.8333 246.167,52.1667 243.5,52.5C 259.632,35.8681 275.965,19.3681 292.5,3C 294.783,0.809979 297.449,0.143313 300.5,1C 284.327,18.0061 267.994,34.8394 251.5,51.5 Z"/></g>
<g><path style="opacity:0.04" fill="#43443f" d="M 270.5,52.5 C 267.941,52.8016 265.607,52.4682 263.5,51.5C 279.965,35.5351 296.299,19.3685 312.5,3C 314.783,0.809979 317.449,0.143313 320.5,1C 303.994,18.3394 287.327,35.5061 270.5,52.5 Z"/></g>
<g><path style="opacity:0.04" fill="#43433f" d="M 288.5,54.5 C 286.435,54.4828 284.435,54.1495 282.5,53.5C 298.965,36.5348 315.632,19.7014 332.5,3C 334.783,0.809979 337.449,0.143313 340.5,1C 323.327,19.0062 305.994,36.8395 288.5,54.5 Z"/></g>
<g><path style="opacity:0.04" fill="#43443f" d="M 305.5,57.5 C 303.435,57.4828 301.435,57.1495 299.5,56.5C 316.965,38.5348 334.632,20.7014 352.5,3C 354.783,0.809979 357.449,0.143313 360.5,1C 342.327,20.0062 323.994,38.8396 305.5,57.5 Z"/></g>
<g><path style="opacity:0.04" fill="#43433f" d="M 320.5,62.5 C 318.694,61.9759 317.028,61.3092 315.5,60.5C 334.994,40.1731 354.994,20.3398 375.5,1C 377.167,0.333333 378.833,0.333333 380.5,1C 360.66,21.673 340.66,42.173 320.5,62.5 Z"/></g>
<g><path style="opacity:0.041" fill="#434340" d="M 335.5,67.5 C 335.167,67.5 334.833,67.5 334.5,67.5C 332.847,67.3404 331.514,66.6737 330.5,65.5C 351.66,43.5065 373.327,22.0065 395.5,1C 397.167,0.333333 398.833,0.333333 400.5,1C 378.993,23.3398 357.327,45.5064 335.5,67.5 Z"/></g>
<g><path style="opacity:0.041" fill="#43443f" d="M 348.5,73.5 C 346.847,73.3404 345.514,72.6737 344.5,71.5C 367.66,47.5066 391.327,24.0066 415.5,1C 417.167,0.333333 418.833,0.333333 420.5,1C 396.993,25.6732 372.993,49.8399 348.5,73.5 Z"/></g>
<g><path style="opacity:0.041" fill="#43443f" d="M 361.5,81.5 C 360.128,80.4884 358.795,79.4884 357.5,78.5C 382.993,52.1734 408.993,26.34 435.5,1C 437.167,0.333333 438.833,0.333333 440.5,1C 414.327,28.0066 387.993,54.8399 361.5,81.5 Z"/></g>
<g><path style="opacity:0.041" fill="#43433f" d="M 373.5,88.5 C 371.847,88.3404 370.514,87.6737 369.5,86.5C 397.66,57.5068 426.327,29.0068 455.5,1C 457.167,0.333333 458.833,0.333333 460.5,1C 431.993,30.6734 402.993,59.8401 373.5,88.5 Z"/></g>
<g><path style="opacity:0.041" fill="#43443f" d="M 384.5,97.5 C 383.167,96.8333 382.167,95.8333 381.5,94.5C 412.327,62.8402 443.66,31.6735 475.5,1C 477.167,0.333333 478.833,0.333333 480.5,1C 448.993,33.6735 416.993,65.8401 384.5,97.5 Z"/></g>
<g><path style="opacity:0.042" fill="#434340" d="M 395.5,106.5 C 393.596,106.262 392.262,105.262 391.5,103.5C 425.993,69.1736 460.66,35.0069 495.5,1C 497.167,0.333333 498.833,0.333333 500.5,1C 465.993,36.6735 430.993,71.8402 395.5,106.5 Z"/></g>
<g><path style="opacity:0.042" fill="#43433f" d="M 511.5,5.5 C 511.5,7.16667 511.5,8.83333 511.5,10.5C 476.527,46.1396 441.194,81.473 405.5,116.5C 403.5,116.5 402.5,115.5 402.5,113.5C 438.195,76.8046 474.528,40.8046 511.5,5.5 Z"/></g>
<g><path style="opacity:0.041" fill="#43433f" d="M 511.5,25.5 C 511.5,27.1667 511.5,28.8333 511.5,30.5C 479.527,63.1396 447.194,95.473 414.5,127.5C 412.738,126.738 411.738,125.404 411.5,123.5C 443.965,91.5348 476.299,59.3682 508.5,27C 509.527,26.4867 510.527,25.9867 511.5,25.5 Z"/></g>
<g><path style="opacity:0.041" fill="#43433f" d="M 511.5,45.5 C 511.5,47.1667 511.5,48.8333 511.5,50.5C 482.194,80.1398 452.861,109.806 423.5,139.5C 422.026,138.564 421.026,137.23 420.5,135.5C 450.195,104.804 480.529,74.8043 511.5,45.5 Z"/></g>
<g><path style="opacity:0.982" fill="#231f20" d="M 251.5,51.5 C 255.5,51.5 259.5,51.5 263.5,51.5C 265.607,52.4682 267.941,52.8016 270.5,52.5C 274.519,52.6458 278.519,52.9791 282.5,53.5C 284.435,54.1495 286.435,54.4828 288.5,54.5C 292.167,55.1667 295.833,55.8333 299.5,56.5C 301.435,57.1495 303.435,57.4828 305.5,57.5C 308.642,58.7903 311.975,59.7903 315.5,60.5C 317.028,61.3092 318.694,61.9759 320.5,62.5C 323.833,63.5 327.167,64.5 330.5,65.5C 331.514,66.6737 332.847,67.3404 334.5,67.5C 330.729,70.7684 327.062,74.2684 323.5,78C 324.056,78.3826 324.389,78.8826 324.5,79.5C 323.833,79.5 323.167,79.5 322.5,79.5C 321.22,78.0687 319.553,77.4021 317.5,77.5C 314.377,75.8848 311.044,74.8848 307.5,74.5C 305.972,73.6908 304.306,73.0241 302.5,72.5C 298.864,71.6745 295.197,71.0078 291.5,70.5C 289.735,69.5386 287.735,69.2053 285.5,69.5C 282.003,68.5975 278.337,67.9309 274.5,67.5C 272.167,67.5 269.833,67.5 267.5,67.5C 263.6,66.5701 259.6,66.2367 255.5,66.5C 253.167,66.5 250.833,66.5 248.5,66.5C 243.87,67.2295 239.203,67.5628 234.5,67.5C 231.904,68.2653 229.237,68.5987 226.5,68.5C 225.833,68.5 225.5,68.8333 225.5,69.5C 220.041,69.9921 214.708,70.9921 209.5,72.5C 206.461,73.01 203.461,73.6766 200.5,74.5C 199.833,74.5 199.5,74.8333 199.5,75.5C 192.161,77.389 185.161,80.0556 178.5,83.5C 173.788,84.7347 169.455,86.7347 165.5,89.5C 164.833,89.5 164.5,89.8333 164.5,90.5C 146.208,100.498 129.875,113.165 115.5,128.5C 115.389,127.883 115.056,127.383 114.5,127C 133.066,108.936 151.066,90.4358 168.5,71.5C 170.5,70.5 172.5,69.5 174.5,68.5C 175.167,68.5 175.5,68.1667 175.5,67.5C 182.172,65.1651 188.838,62.8318 195.5,60.5C 198.5,59.8333 201.5,59.1667 204.5,58.5C 205.167,58.5 205.5,58.1667 205.5,57.5C 210.832,56.5005 216.165,55.5005 221.5,54.5C 224.167,54.1667 226.833,53.8333 229.5,53.5C 234.13,52.7705 238.797,52.4372 243.5,52.5C 246.167,52.1667 248.833,51.8333 251.5,51.5 Z"/></g>
<g><path style="opacity:0.041" fill="#43433f" d="M 511.5,65.5 C 511.5,67.1667 511.5,68.8333 511.5,70.5C 484.861,97.4731 458.194,124.473 431.5,151.5C 429.937,150.055 428.604,148.389 427.5,146.5C 454.916,120.586 481.916,94.0857 508.5,67C 509.527,66.4867 510.527,65.9867 511.5,65.5 Z"/></g>
<g><path style="opacity:0.043" fill="#43443f" d="M 248.5,66.5 C 250.833,66.5 253.167,66.5 255.5,66.5C 192.833,129.833 129.833,192.833 66.5,255.5C 66.5,253.167 66.5,250.833 66.5,248.5C 127.5,188.167 188.167,127.5 248.5,66.5 Z"/></g>
<g><path style="opacity:0.043" fill="#43443f" d="M 234.5,67.5 C 179.167,123.5 123.5,179.167 67.5,234.5C 68.062,231.454 68.7287,228.454 69.5,225.5C 121.833,173.833 173.833,121.833 225.5,69.5C 226.167,69.5 226.5,69.1667 226.5,68.5C 229.237,68.5987 231.904,68.2653 234.5,67.5 Z"/></g>
<g><path style="opacity:0.043" fill="#43443f" d="M 267.5,67.5 C 269.833,67.5 272.167,67.5 274.5,67.5C 205.833,136.833 136.833,205.833 67.5,274.5C 67.5,272.167 67.5,269.833 67.5,267.5C 134.5,201.167 201.167,134.5 267.5,67.5 Z"/></g>
<g><path style="opacity:0.945" fill="#231f20" d="M 334.5,67.5 C 334.833,67.5 335.167,67.5 335.5,67.5C 338.314,69.0697 341.314,70.4031 344.5,71.5C 345.514,72.6737 346.847,73.3404 348.5,73.5C 351.131,75.1526 353.797,76.8193 356.5,78.5C 353.899,82.7706 350.566,86.4372 346.5,89.5C 346.167,89.5 345.833,89.5 345.5,89.5C 342.622,87.8946 339.622,86.5612 336.5,85.5C 335.828,84.7326 334.995,84.0659 334,83.5C 295.811,118.85 259.978,156.183 226.5,195.5C 221.472,200.86 216.472,206.193 211.5,211.5C 203.032,218.446 194.698,226.279 186.5,235C 185.906,235.464 185.239,235.631 184.5,235.5C 189.749,229.318 194.749,222.985 199.5,216.5C 239.635,169.345 282.302,124.345 327.5,81.5C 326.643,80.5748 325.643,79.9081 324.5,79.5C 324.389,78.8826 324.056,78.3826 323.5,78C 327.062,74.2684 330.729,70.7684 334.5,67.5 Z"/></g>
<g><path style="opacity:0.043" fill="#43433f" d="M 285.5,69.5 C 287.735,69.2053 289.735,69.5386 291.5,70.5C 218.167,144.5 144.5,218.167 70.5,291.5C 69.5386,289.735 69.2053,287.735 69.5,285.5C 141.833,213.833 213.833,141.833 285.5,69.5 Z"/></g>
<g><path style="opacity:0.043" fill="#43433f" d="M 209.5,72.5 C 164.167,118.5 118.5,164.167 72.5,209.5C 72.8848,205.956 73.8848,202.623 75.5,199.5C 117.167,158.5 158.5,117.167 199.5,75.5C 200.167,75.5 200.5,75.1667 200.5,74.5C 203.461,73.6766 206.461,73.01 209.5,72.5 Z"/></g>
<g><path style="opacity:0.043" fill="#43433f" d="M 302.5,72.5 C 304.306,73.0241 305.972,73.6908 307.5,74.5C 230.167,152.5 152.5,230.167 74.5,307.5C 73.4625,306.07 72.7959,304.403 72.5,302.5C 149.5,226.167 226.167,149.5 302.5,72.5 Z"/></g>
<g><path style="opacity:0.043" fill="#43433f" d="M 317.5,77.5 C 319.553,77.4021 321.22,78.0687 322.5,79.5C 241.833,160.833 160.833,241.833 79.5,322.5C 78.0687,321.22 77.4021,319.553 77.5,317.5C 157.833,237.833 237.833,157.833 317.5,77.5 Z"/></g>
<g><path style="opacity:0.977" fill="#231f20" d="M 356.5,78.5 C 356.833,78.5 357.167,78.5 357.5,78.5C 358.795,79.4884 360.128,80.4884 361.5,81.5C 364.167,83.1667 366.833,84.8333 369.5,86.5C 370.514,87.6737 371.847,88.3404 373.5,88.5C 373.5,88.8333 373.5,89.1667 373.5,89.5C 369.229,92.1009 365.563,95.4342 362.5,99.5C 360.948,98.3782 359.282,97.8782 357.5,98C 351.631,104.036 345.631,109.87 339.5,115.5C 338.833,115.5 338.5,115.833 338.5,116.5C 337.833,116.5 337.5,116.833 337.5,117.5C 336.833,117.5 336.5,117.833 336.5,118.5C 335.833,118.5 335.5,118.833 335.5,119.5C 334.833,119.5 334.5,119.833 334.5,120.5C 333.833,120.5 333.5,120.833 333.5,121.5C 332.833,121.5 332.5,121.833 332.5,122.5C 331.833,122.5 331.5,122.833 331.5,123.5C 330.833,123.5 330.5,123.833 330.5,124.5C 329.833,124.5 329.5,124.833 329.5,125.5C 328.833,125.5 328.5,125.833 328.5,126.5C 327.833,126.5 327.5,126.833 327.5,127.5C 326.833,127.5 326.5,127.833 326.5,128.5C 325.833,128.5 325.5,128.833 325.5,129.5C 324.833,129.5 324.5,129.833 324.5,130.5C 323.833,130.5 323.5,130.833 323.5,131.5C 322.833,131.5 322.5,131.833 322.5,132.5C 321.833,132.5 321.5,132.833 321.5,133.5C 320.833,133.5 320.5,133.833 320.5,134.5C 319.833,134.5 319.5,134.833 319.5,135.5C 318.833,135.5 318.5,135.833 318.5,136.5C 317.833,136.5 317.5,136.833 317.5,137.5C 316.833,137.5 316.5,137.833 316.5,138.5C 315.833,138.5 315.5,138.833 315.5,139.5C 314.833,139.5 314.5,139.833 314.5,140.5C 313.833,140.5 313.5,140.833 313.5,141.5C 312.833,141.5 312.5,141.833 312.5,142.5C 311.833,142.5 311.5,142.833 311.5,143.5C 310.833,143.5 310.5,143.833 310.5,144.5C 309.833,144.5 309.5,144.833 309.5,145.5C 308.833,145.5 308.5,145.833 308.5,146.5C 307.833,146.5 307.5,146.833 307.5,147.5C 306.833,147.5 306.5,147.833 306.5,148.5C 305.833,148.5 305.5,148.833 305.5,149.5C 304.833,149.5 304.5,149.833 304.5,150.5C 303.833,150.5 303.5,150.833 303.5,151.5C 302.833,151.5 302.5,151.833 302.5,152.5C 301.833,152.5 301.5,152.833 301.5,153.5C 300.833,153.5 300.5,153.833 300.5,154.5C 299.833,154.5 299.5,154.833 299.5,155.5C 298.833,155.5 298.5,155.833 298.5,156.5C 297.833,156.5 297.5,156.833 297.5,157.5C 296.833,157.5 296.5,157.833 296.5,158.5C 295.833,158.5 295.5,158.833 295.5,159.5C 273.655,181.589 252.988,204.589 233.5,228.5C 213.295,250.36 194.628,273.36 177.5,297.5C 176.833,297.5 176.5,297.833 176.5,298.5C 175.833,298.5 175.5,298.833 175.5,299.5C 174.833,299.5 174.5,299.833 174.5,300.5C 170.137,305.858 165.803,311.191 161.5,316.5C 149.5,327.5 137.5,338.5 125.5,349.5C 135.422,335.98 145.089,322.313 154.5,308.5C 155.167,308.5 155.5,308.167 155.5,307.5C 156.167,307.5 156.5,307.167 156.5,306.5C 157.167,306.5 157.5,306.167 157.5,305.5C 164.858,295.815 172.191,286.148 179.5,276.5C 199.936,251.285 220.603,226.285 241.5,201.5C 242.167,201.5 242.5,201.167 242.5,200.5C 243.167,200.5 243.5,200.167 243.5,199.5C 244.167,199.5 244.5,199.167 244.5,198.5C 245.167,198.5 245.5,198.167 245.5,197.5C 246.167,197.5 246.5,197.167 246.5,196.5C 247.167,196.5 247.5,196.167 247.5,195.5C 248.167,195.5 248.5,195.167 248.5,194.5C 249.167,194.5 249.5,194.167 249.5,193.5C 281.709,158.458 315.043,124.625 349.5,92C 348.429,91.1482 347.429,90.3149 346.5,89.5C 350.566,86.4372 353.899,82.7706 356.5,78.5 Z"/></g>
<g><path style="opacity:0.043" fill="#43433f" d="M 178.5,83.5 C 147.167,115.5 115.5,147.167 83.5,178.5C 84.1667,176.167 84.8333,173.833 85.5,171.5C 87.1921,169.795 88.5254,167.795 89.5,165.5C 90.1667,165.5 90.5,165.167 90.5,164.5C 115.5,140.167 140.167,115.5 164.5,90.5C 165.167,90.5 165.5,90.1667 165.5,89.5C 169.455,86.7347 173.788,84.7347 178.5,83.5 Z"/></g>
<g><path style="opacity:0.047" fill="#43433f" d="M 336.5,85.5 C 300.167,122.5 263.5,159.167 226.5,195.5C 259.978,156.183 295.811,118.85 334,83.5C 334.995,84.0659 335.828,84.7326 336.5,85.5 Z"/></g>
<g><path style="opacity:0.041" fill="#43433f" d="M 511.5,85.5 C 511.5,87.1667 511.5,88.8333 511.5,90.5C 487.194,115.14 462.861,139.806 438.5,164.5C 437.11,163.101 436.11,161.434 435.5,159.5C 459.965,135.535 484.299,111.368 508.5,87C 509.527,86.4867 510.527,85.9867 511.5,85.5 Z"/></g>
<g><path style="opacity:0.045" fill="#43433f" d="M 345.5,89.5 C 345.833,89.5 346.167,89.5 346.5,89.5C 347.429,90.3149 348.429,91.1482 349.5,92C 315.043,124.625 281.709,158.458 249.5,193.5C 248.833,193.5 248.5,193.833 248.5,194.5C 247.833,194.5 247.5,194.833 247.5,195.5C 246.833,195.5 246.5,195.833 246.5,196.5C 245.833,196.5 245.5,196.833 245.5,197.5C 244.833,197.5 244.5,197.833 244.5,198.5C 243.833,198.5 243.5,198.833 243.5,199.5C 242.833,199.5 242.5,199.833 242.5,200.5C 241.833,200.5 241.5,200.833 241.5,201.5C 207.833,234.833 174.167,268.167 140.5,301.5C 146.426,291.995 153.093,282.995 160.5,274.5C 161.167,274.5 161.5,274.167 161.5,273.5C 162.167,273.5 162.5,273.167 162.5,272.5C 163.167,272.5 163.5,272.167 163.5,271.5C 164.167,271.5 164.5,271.167 164.5,270.5C 225.167,210.5 285.5,150.167 345.5,89.5 Z"/></g>
<g><path style="opacity:0.044" fill="#43433f" d="M 362.5,99.5 C 362.5,99.8333 362.5,100.167 362.5,100.5C 356.5,105.833 350.833,111.5 345.5,117.5C 344.833,117.5 344.5,117.833 344.5,118.5C 343.833,118.5 343.5,118.833 343.5,119.5C 342.833,119.5 342.5,119.833 342.5,120.5C 341.833,120.5 341.5,120.833 341.5,121.5C 340.833,121.5 340.5,121.833 340.5,122.5C 339.833,122.5 339.5,122.833 339.5,123.5C 336.167,126.167 333.167,129.167 330.5,132.5C 329.833,132.5 329.5,132.833 329.5,133.5C 328.833,133.5 328.5,133.833 328.5,134.5C 327.833,134.5 327.5,134.833 327.5,135.5C 326.833,135.5 326.5,135.833 326.5,136.5C 325.833,136.5 325.5,136.833 325.5,137.5C 324.833,137.5 324.5,137.833 324.5,138.5C 323.833,138.5 323.5,138.833 323.5,139.5C 322.833,139.5 322.5,139.833 322.5,140.5C 321.833,140.5 321.5,140.833 321.5,141.5C 320.833,141.5 320.5,141.833 320.5,142.5C 317.167,145.167 314.167,148.167 311.5,151.5C 310.833,151.5 310.5,151.833 310.5,152.5C 309.833,152.5 309.5,152.833 309.5,153.5C 308.833,153.5 308.5,153.833 308.5,154.5C 307.833,154.5 307.5,154.833 307.5,155.5C 306.833,155.5 306.5,155.833 306.5,156.5C 305.833,156.5 305.5,156.833 305.5,157.5C 304.833,157.5 304.5,157.833 304.5,158.5C 303.833,158.5 303.5,158.833 303.5,159.5C 302.833,159.5 302.5,159.833 302.5,160.5C 301.833,160.5 301.5,160.833 301.5,161.5C 278.833,183.833 256.167,206.167 233.5,228.5C 252.988,204.589 273.655,181.589 295.5,159.5C 296.167,159.5 296.5,159.167 296.5,158.5C 297.167,158.5 297.5,158.167 297.5,157.5C 298.167,157.5 298.5,157.167 298.5,156.5C 299.167,156.5 299.5,156.167 299.5,155.5C 300.167,155.5 300.5,155.167 300.5,154.5C 301.167,154.5 301.5,154.167 301.5,153.5C 302.167,153.5 302.5,153.167 302.5,152.5C 303.167,152.5 303.5,152.167 303.5,151.5C 304.167,151.5 304.5,151.167 304.5,150.5C 305.167,150.5 305.5,150.167 305.5,149.5C 306.167,149.5 306.5,149.167 306.5,148.5C 307.167,148.5 307.5,148.167 307.5,147.5C 308.167,147.5 308.5,147.167 308.5,146.5C 309.167,146.5 309.5,146.167 309.5,145.5C 310.167,145.5 310.5,145.167 310.5,144.5C 311.167,144.5 311.5,144.167 311.5,143.5C 312.167,143.5 312.5,143.167 312.5,142.5C 313.167,142.5 313.5,142.167 313.5,141.5C 314.167,141.5 314.5,141.167 314.5,140.5C 315.167,140.5 315.5,140.167 315.5,139.5C 316.167,139.5 316.5,139.167 316.5,138.5C 317.167,138.5 317.5,138.167 317.5,137.5C 318.167,137.5 318.5,137.167 318.5,136.5C 319.167,136.5 319.5,136.167 319.5,135.5C 320.167,135.5 320.5,135.167 320.5,134.5C 321.167,134.5 321.5,134.167 321.5,133.5C 322.167,133.5 322.5,133.167 322.5,132.5C 323.167,132.5 323.5,132.167 323.5,131.5C 324.167,131.5 324.5,131.167 324.5,130.5C 325.167,130.5 325.5,130.167 325.5,129.5C 326.167,129.5 326.5,129.167 326.5,128.5C 327.167,128.5 327.5,128.167 327.5,127.5C 328.167,127.5 328.5,127.167 328.5,126.5C 329.167,126.5 329.5,126.167 329.5,125.5C 330.167,125.5 330.5,125.167 330.5,124.5C 331.167,124.5 331.5,124.167 331.5,123.5C 332.167,123.5 332.5,123.167 332.5,122.5C 333.167,122.5 333.5,122.167 333.5,121.5C 334.167,121.5 334.5,121.167 334.5,120.5C 335.167,120.5 335.5,120.167 335.5,119.5C 336.167,119.5 336.5,119.167 336.5,118.5C 337.167,118.5 337.5,118.167 337.5,117.5C 338.167,117.5 338.5,117.167 338.5,116.5C 339.167,116.5 339.5,116.167 339.5,115.5C 345.631,109.87 351.631,104.036 357.5,98C 359.282,97.8782 360.948,98.3782 362.5,99.5 Z"/></g>
<g><path style="opacity:0.974" fill="#231f20" d="M 373.5,89.5 C 376.184,91.1933 378.851,92.86 381.5,94.5C 382.167,95.8333 383.167,96.8333 384.5,97.5C 386.808,99.4707 389.142,101.471 391.5,103.5C 392.262,105.262 393.596,106.262 395.5,106.5C 397.5,108.833 399.5,111.167 401.5,113.5C 398.899,117.771 395.566,121.437 391.5,124.5C 391.167,124.5 390.833,124.5 390.5,124.5C 390.565,124.062 390.399,123.728 390,123.5C 387.978,126.759 385.145,128.259 381.5,128C 380.446,126.612 380.28,125.112 381,123.5C 382.5,122 384,120.5 385.5,119C 385.272,118.601 384.938,118.435 384.5,118.5C 383.542,117.038 382.376,115.705 381,114.5C 373.965,121.703 366.798,128.703 359.5,135.5C 358.833,135.5 358.5,135.833 358.5,136.5C 357.833,136.5 357.5,136.833 357.5,137.5C 356.833,137.5 356.5,137.833 356.5,138.5C 355.833,138.5 355.5,138.833 355.5,139.5C 354.833,139.5 354.5,139.833 354.5,140.5C 353.833,140.5 353.5,140.833 353.5,141.5C 352.833,141.5 352.5,141.833 352.5,142.5C 351.833,142.5 351.5,142.833 351.5,143.5C 350.833,143.5 350.5,143.833 350.5,144.5C 349.833,144.5 349.5,144.833 349.5,145.5C 348.833,145.5 348.5,145.833 348.5,146.5C 347.833,146.5 347.5,146.833 347.5,147.5C 346.833,147.5 346.5,147.833 346.5,148.5C 345.833,148.5 345.5,148.833 345.5,149.5C 344.833,149.5 344.5,149.833 344.5,150.5C 343.833,150.5 343.5,150.833 343.5,151.5C 342.833,151.5 342.5,151.833 342.5,152.5C 341.833,152.5 341.5,152.833 341.5,153.5C 340.833,153.5 340.5,153.833 340.5,154.5C 339.833,154.5 339.5,154.833 339.5,155.5C 338.833,155.5 338.5,155.833 338.5,156.5C 337.833,156.5 337.5,156.833 337.5,157.5C 336.833,157.5 336.5,157.833 336.5,158.5C 335.833,158.5 335.5,158.833 335.5,159.5C 334.833,159.5 334.5,159.833 334.5,160.5C 333.833,160.5 333.5,160.833 333.5,161.5C 332.833,161.5 332.5,161.833 332.5,162.5C 331.833,162.5 331.5,162.833 331.5,163.5C 330.833,163.5 330.5,163.833 330.5,164.5C 329.833,164.5 329.5,164.833 329.5,165.5C 328.833,165.5 328.5,165.833 328.5,166.5C 327.833,166.5 327.5,166.833 327.5,167.5C 326.833,167.5 326.5,167.833 326.5,168.5C 325.833,168.5 325.5,168.833 325.5,169.5C 324.833,169.5 324.5,169.833 324.5,170.5C 323.833,170.5 323.5,170.833 323.5,171.5C 322.833,171.5 322.5,171.833 322.5,172.5C 321.833,172.5 321.5,172.833 321.5,173.5C 320.833,173.5 320.5,173.833 320.5,174.5C 319.833,174.5 319.5,174.833 319.5,175.5C 318.833,175.5 318.5,175.833 318.5,176.5C 307.173,187.995 296.006,199.661 285,211.5C 274.225,223.099 264.058,235.099 254.5,247.5C 234.72,269.099 216.386,291.765 199.5,315.5C 198.833,315.5 198.5,315.833 198.5,316.5C 197.833,316.5 197.5,316.833 197.5,317.5C 196.833,317.5 196.5,317.833 196.5,318.5C 195.833,318.5 195.5,318.833 195.5,319.5C 191.803,324.191 188.136,328.858 184.5,333.5C 172.253,344.244 160.42,355.577 149,367.5C 148.601,367.272 148.435,366.938 148.5,366.5C 157.843,353.138 167.176,339.804 176.5,326.5C 177.167,326.5 177.5,326.167 177.5,325.5C 178.167,325.5 178.5,325.167 178.5,324.5C 179.167,324.5 179.5,324.167 179.5,323.5C 186.524,314.148 193.524,304.815 200.5,295.5C 221.508,270.136 242.508,244.802 263.5,219.5C 264.167,219.5 264.5,219.167 264.5,218.5C 265.167,218.5 265.5,218.167 265.5,217.5C 266.167,217.5 266.5,217.167 266.5,216.5C 267.167,216.5 267.5,216.167 267.5,215.5C 268.167,215.5 268.5,215.167 268.5,214.5C 269.167,214.5 269.5,214.167 269.5,213.5C 270.167,213.5 270.5,213.167 270.5,212.5C 271.167,212.5 271.5,212.167 271.5,211.5C 304.403,175.764 338.403,141.264 373.5,108C 372.307,106.905 370.973,106.072 369.5,105.5C 369.565,105.062 369.399,104.728 369,104.5C 367.5,106 366,107.5 364.5,109C 361.967,109.852 359.967,109.186 358.5,107C 359.79,104.708 361.457,102.708 363.5,101C 363.272,100.601 362.938,100.435 362.5,100.5C 362.5,100.167 362.5,99.8333 362.5,99.5C 365.563,95.4342 369.229,92.1009 373.5,89.5 Z"/></g>
<g><path style="opacity:0.046" fill="#43433f" d="M 369.5,105.5 C 370.973,106.072 372.307,106.905 373.5,108C 338.403,141.264 304.403,175.764 271.5,211.5C 270.833,211.5 270.5,211.833 270.5,212.5C 269.833,212.5 269.5,212.833 269.5,213.5C 268.833,213.5 268.5,213.833 268.5,214.5C 267.833,214.5 267.5,214.833 267.5,215.5C 266.833,215.5 266.5,215.833 266.5,216.5C 265.833,216.5 265.5,216.833 265.5,217.5C 264.833,217.5 264.5,217.833 264.5,218.5C 263.833,218.5 263.5,218.833 263.5,219.5C 250.833,231.833 238.167,244.167 225.5,256.5C 225.634,254.708 225.301,253.042 224.5,251.5C 225.833,249.5 227.5,247.833 229.5,246.5C 230.873,246.657 232.207,246.49 233.5,246C 237.461,241.886 240.794,237.386 243.5,232.5C 245.167,230.5 246.833,228.5 248.5,226.5C 253.812,223.188 258.145,218.855 261.5,213.5C 264.167,211.5 266.5,209.167 268.5,206.5C 269.167,206.5 269.5,206.167 269.5,205.5C 270.167,205.5 270.5,205.167 270.5,204.5C 271.167,204.5 271.5,204.167 271.5,203.5C 272.167,203.5 272.5,203.167 272.5,202.5C 273.167,202.5 273.5,202.167 273.5,201.5C 274.167,201.5 274.5,201.167 274.5,200.5C 275.167,200.5 275.5,200.167 275.5,199.5C 276.167,199.5 276.5,199.167 276.5,198.5C 277.167,198.5 277.5,198.167 277.5,197.5C 308.5,167.167 339.167,136.5 369.5,105.5 Z"/></g>
<g><path style="opacity:0.041" fill="#43443f" d="M 511.5,105.5 C 511.5,107.167 511.5,108.833 511.5,110.5C 489.527,133.14 467.194,155.473 444.5,177.5C 443.326,176.486 442.66,175.153 442.5,173.5C 464.863,150.137 487.863,127.47 511.5,105.5 Z"/></g>
<g><path style="opacity:0.869" fill="#221e1f" d="M 339.5,123.5 C 340.167,123.5 340.5,123.167 340.5,122.5C 341.167,122.5 341.5,122.167 341.5,121.5C 342.167,121.5 342.5,121.167 342.5,120.5C 343.167,120.5 343.5,120.167 343.5,119.5C 344.167,119.5 344.5,119.167 344.5,118.5C 345.167,118.5 345.5,118.167 345.5,117.5C 347.774,116.403 349.941,115.07 352,113.5C 354.319,114.409 354.986,116.075 354,118.5C 350.833,121.667 347.667,124.833 344.5,128C 340.508,129.177 338.842,127.677 339.5,123.5 Z"/></g>
<g><path style="opacity:0.044" fill="#43433f" d="M 384.5,118.5 C 377.167,125.167 370.167,132.167 363.5,139.5C 362.833,139.5 362.5,139.833 362.5,140.5C 361.833,140.5 361.5,140.833 361.5,141.5C 358.167,144.167 355.167,147.167 352.5,150.5C 351.833,150.5 351.5,150.833 351.5,151.5C 350.833,151.5 350.5,151.833 350.5,152.5C 349.833,152.5 349.5,152.833 349.5,153.5C 348.833,153.5 348.5,153.833 348.5,154.5C 347.833,154.5 347.5,154.833 347.5,155.5C 346.833,155.5 346.5,155.833 346.5,156.5C 345.833,156.5 345.5,156.833 345.5,157.5C 344.833,157.5 344.5,157.833 344.5,158.5C 343.833,158.5 343.5,158.833 343.5,159.5C 342.833,159.5 342.5,159.833 342.5,160.5C 338.833,163.5 335.5,166.833 332.5,170.5C 331.833,170.5 331.5,170.833 331.5,171.5C 330.833,171.5 330.5,171.833 330.5,172.5C 329.833,172.5 329.5,172.833 329.5,173.5C 328.833,173.5 328.5,173.833 328.5,174.5C 327.833,174.5 327.5,174.833 327.5,175.5C 326.833,175.5 326.5,175.833 326.5,176.5C 325.833,176.5 325.5,176.833 325.5,177.5C 324.833,177.5 324.5,177.833 324.5,178.5C 323.833,178.5 323.5,178.833 323.5,179.5C 300.5,202.167 277.5,224.833 254.5,247.5C 264.058,235.099 274.225,223.099 285,211.5C 296.006,199.661 307.173,187.995 318.5,176.5C 319.167,176.5 319.5,176.167 319.5,175.5C 320.167,175.5 320.5,175.167 320.5,174.5C 321.167,174.5 321.5,174.167 321.5,173.5C 322.167,173.5 322.5,173.167 322.5,172.5C 323.167,172.5 323.5,172.167 323.5,171.5C 324.167,171.5 324.5,171.167 324.5,170.5C 325.167,170.5 325.5,170.167 325.5,169.5C 326.167,169.5 326.5,169.167 326.5,168.5C 327.167,168.5 327.5,168.167 327.5,167.5C 328.167,167.5 328.5,167.167 328.5,166.5C 329.167,166.5 329.5,166.167 329.5,165.5C 330.167,165.5 330.5,165.167 330.5,164.5C 331.167,164.5 331.5,164.167 331.5,163.5C 332.167,163.5 332.5,163.167 332.5,162.5C 333.167,162.5 333.5,162.167 333.5,161.5C 334.167,161.5 334.5,161.167 334.5,160.5C 335.167,160.5 335.5,160.167 335.5,159.5C 336.167,159.5 336.5,159.167 336.5,158.5C 337.167,158.5 337.5,158.167 337.5,157.5C 338.167,157.5 338.5,157.167 338.5,156.5C 339.167,156.5 339.5,156.167 339.5,155.5C 340.167,155.5 340.5,155.167 340.5,154.5C 341.167,154.5 341.5,154.167 341.5,153.5C 342.167,153.5 342.5,153.167 342.5,152.5C 343.167,152.5 343.5,152.167 343.5,151.5C 344.167,151.5 344.5,151.167 344.5,150.5C 345.167,150.5 345.5,150.167 345.5,149.5C 346.167,149.5 346.5,149.167 346.5,148.5C 347.167,148.5 347.5,148.167 347.5,147.5C 348.167,147.5 348.5,147.167 348.5,146.5C 349.167,146.5 349.5,146.167 349.5,145.5C 350.167,145.5 350.5,145.167 350.5,144.5C 351.167,144.5 351.5,144.167 351.5,143.5C 352.167,143.5 352.5,143.167 352.5,142.5C 353.167,142.5 353.5,142.167 353.5,141.5C 354.167,141.5 354.5,141.167 354.5,140.5C 355.167,140.5 355.5,140.167 355.5,139.5C 356.167,139.5 356.5,139.167 356.5,138.5C 357.167,138.5 357.5,138.167 357.5,137.5C 358.167,137.5 358.5,137.167 358.5,136.5C 359.167,136.5 359.5,136.167 359.5,135.5C 366.798,128.703 373.965,121.703 381,114.5C 382.376,115.705 383.542,117.038 384.5,118.5 Z"/></g>
<g><path style="opacity:0.972" fill="#231f20" d="M 401.5,113.5 C 401.833,113.5 402.167,113.5 402.5,113.5C 402.5,115.5 403.5,116.5 405.5,116.5C 406.757,119.427 408.757,121.761 411.5,123.5C 411.738,125.404 412.738,126.738 414.5,127.5C 414.5,127.833 414.5,128.167 414.5,128.5C 410.562,131.098 406.895,134.098 403.5,137.5C 402.542,137.047 401.708,136.381 401,135.5C 369.97,164.863 339.97,195.196 311,226.5C 302.267,236.392 293.767,246.392 285.5,256.5C 264.298,279.356 244.631,303.356 226.5,328.5C 225.833,328.5 225.5,328.833 225.5,329.5C 224.833,329.5 224.5,329.833 224.5,330.5C 223.833,330.5 223.5,330.833 223.5,331.5C 222.833,331.5 222.5,331.833 222.5,332.5C 218.156,337.873 213.823,343.206 209.5,348.5C 197.586,358.91 186.086,369.91 175,381.5C 174.601,381.272 174.435,380.938 174.5,380.5C 183.843,367.138 193.176,353.804 202.5,340.5C 203.167,340.5 203.5,340.167 203.5,339.5C 204.167,339.5 204.5,339.167 204.5,338.5C 205.167,338.5 205.5,338.167 205.5,337.5C 213.085,327.983 220.418,318.316 227.5,308.5C 250.032,280.765 273.032,253.432 296.5,226.5C 297.167,226.5 297.5,226.167 297.5,225.5C 298.167,225.5 298.5,225.167 298.5,224.5C 299.167,224.5 299.5,224.167 299.5,223.5C 300.167,223.5 300.5,223.167 300.5,222.5C 301.167,222.5 301.5,222.167 301.5,221.5C 302.167,221.5 302.5,221.167 302.5,220.5C 303.167,220.5 303.5,220.167 303.5,219.5C 304.167,219.5 304.5,219.167 304.5,218.5C 305.167,218.5 305.5,218.167 305.5,217.5C 306.167,217.5 306.5,217.167 306.5,216.5C 334.991,186.175 364.325,156.675 394.5,128C 393.29,126.961 392.29,125.794 391.5,124.5C 395.566,121.437 398.899,117.771 401.5,113.5 Z"/></g>
<g><path style="opacity:0.046" fill="#43433f" d="M 390.5,124.5 C 390.833,124.5 391.167,124.5 391.5,124.5C 392.29,125.794 393.29,126.961 394.5,128C 364.325,156.675 334.991,186.175 306.5,216.5C 305.833,216.5 305.5,216.833 305.5,217.5C 304.833,217.5 304.5,217.833 304.5,218.5C 303.833,218.5 303.5,218.833 303.5,219.5C 302.833,219.5 302.5,219.833 302.5,220.5C 301.833,220.5 301.5,220.833 301.5,221.5C 300.833,221.5 300.5,221.833 300.5,222.5C 299.833,222.5 299.5,222.833 299.5,223.5C 298.833,223.5 298.5,223.833 298.5,224.5C 297.833,224.5 297.5,224.833 297.5,225.5C 296.833,225.5 296.5,225.833 296.5,226.5C 280.167,242.5 263.833,258.5 247.5,274.5C 247.771,272.62 247.104,271.287 245.5,270.5C 247.167,268.5 248.833,266.5 250.5,264.5C 251.847,265.028 253.181,265.195 254.5,265C 259.245,260.967 262.579,256.133 264.5,250.5C 266.833,248.833 268.833,246.833 270.5,244.5C 275.457,241.543 279.457,237.543 282.5,232.5C 285.5,230.167 288.167,227.5 290.5,224.5C 291.167,224.5 291.5,224.167 291.5,223.5C 292.167,223.5 292.5,223.167 292.5,222.5C 293.167,222.5 293.5,222.167 293.5,221.5C 294.167,221.5 294.5,221.167 294.5,220.5C 295.167,220.5 295.5,220.167 295.5,219.5C 296.167,219.5 296.5,219.167 296.5,218.5C 297.167,218.5 297.5,218.167 297.5,217.5C 298.167,217.5 298.5,217.167 298.5,216.5C 299.167,216.5 299.5,216.167 299.5,215.5C 300.167,215.5 300.5,215.167 300.5,214.5C 330.833,184.833 360.833,154.833 390.5,124.5 Z"/></g>
<g><path style="opacity:0.04" fill="#43443f" d="M 511.5,125.5 C 511.5,127.167 511.5,128.833 511.5,130.5C 491.194,151.473 470.527,172.14 449.5,192.5C 448.833,190.833 448.167,189.167 447.5,187.5C 467.965,167.535 488.299,147.368 508.5,127C 509.527,126.487 510.527,125.987 511.5,125.5 Z"/></g>
<g><path style="opacity:0.979" fill="#231f20" d="M 168.5,71.5 C 151.066,90.4358 133.066,108.936 114.5,127C 115.056,127.383 115.389,127.883 115.5,128.5C 105.582,139.415 97.2487,151.415 90.5,164.5C 89.8333,164.5 89.5,164.833 89.5,165.5C 88.5254,167.795 87.1921,169.795 85.5,171.5C 77.7797,179.224 69.7797,186.557 61.5,193.5C 63.3024,187.426 65.3024,181.426 67.5,175.5C 68.1667,175.5 68.5,175.167 68.5,174.5C 70.5,170.167 72.5,165.833 74.5,161.5C 81.7386,148.61 89.7386,136.277 98.5,124.5C 99.1667,124.5 99.5,124.167 99.5,123.5C 100.167,123.5 100.5,123.167 100.5,122.5C 101.167,122.5 101.5,122.167 101.5,121.5C 102.167,121.5 102.5,121.167 102.5,120.5C 103.167,120.5 103.5,120.167 103.5,119.5C 104.167,119.5 104.5,119.167 104.5,118.5C 105.167,118.5 105.5,118.167 105.5,117.5C 109.167,113.167 113.167,109.167 117.5,105.5C 118.167,105.5 118.5,105.167 118.5,104.5C 119.167,104.5 119.5,104.167 119.5,103.5C 120.167,103.5 120.5,103.167 120.5,102.5C 121.167,102.5 121.5,102.167 121.5,101.5C 122.167,101.5 122.5,101.167 122.5,100.5C 123.167,100.5 123.5,100.167 123.5,99.5C 124.167,99.5 124.5,99.1667 124.5,98.5C 136.277,89.7386 148.61,81.7386 161.5,74.5C 163.687,73.242 166.02,72.242 168.5,71.5 Z"/></g>
<g><path style="opacity:0.913" fill="#221f1f" d="M 330.5,132.5 C 334.138,131.737 335.638,133.07 335,136.5C 331.5,140 328,143.5 324.5,147C 321.07,147.638 319.737,146.138 320.5,142.5C 321.167,142.5 321.5,142.167 321.5,141.5C 322.167,141.5 322.5,141.167 322.5,140.5C 323.167,140.5 323.5,140.167 323.5,139.5C 324.167,139.5 324.5,139.167 324.5,138.5C 325.167,138.5 325.5,138.167 325.5,137.5C 326.167,137.5 326.5,137.167 326.5,136.5C 327.167,136.5 327.5,136.167 327.5,135.5C 328.167,135.5 328.5,135.167 328.5,134.5C 329.167,134.5 329.5,134.167 329.5,133.5C 330.167,133.5 330.5,133.167 330.5,132.5 Z"/></g>
<g><path style="opacity:0.927" fill="#221e1f" d="M 361.5,141.5 C 362.167,141.5 362.5,141.167 362.5,140.5C 363.167,140.5 363.5,140.167 363.5,139.5C 367.105,137.073 370.605,134.407 374,131.5C 375.236,132.399 376.07,133.566 376.5,135C 373.549,138.954 370.216,142.621 366.5,146C 364.866,146.494 363.199,146.66 361.5,146.5C 361.5,144.833 361.5,143.167 361.5,141.5 Z"/></g>
<g><path style="opacity:0.047" fill="#43433f" d="M 403.5,137.5 C 403.5,138.167 403.5,138.833 403.5,139.5C 364.167,178.5 324.833,217.5 285.5,256.5C 293.767,246.392 302.267,236.392 311,226.5C 339.97,195.196 369.97,164.863 401,135.5C 401.708,136.381 402.542,137.047 403.5,137.5 Z"/></g>
<g><path style="opacity:0.94" fill="#231f20" d="M 414.5,128.5 C 416.5,130.833 418.5,133.167 420.5,135.5C 421.026,137.23 422.026,138.564 423.5,139.5C 424.833,141.833 426.167,144.167 427.5,146.5C 428.604,148.389 429.937,150.055 431.5,151.5C 432.308,154.45 433.642,157.117 435.5,159.5C 436.11,161.434 437.11,163.101 438.5,164.5C 439.597,167.686 440.93,170.686 442.5,173.5C 442.66,175.153 443.326,176.486 444.5,177.5C 445.492,180.823 446.492,184.156 447.5,187.5C 448.167,189.167 448.833,190.833 449.5,192.5C 450.503,195.85 451.503,199.183 452.5,202.5C 452.833,204.5 453.167,206.5 453.5,208.5C 454.51,211.924 455.51,215.257 456.5,218.5C 456.5,218.833 456.5,219.167 456.5,219.5C 452.527,224.14 448.194,228.473 443.5,232.5C 443.167,232.5 442.833,232.5 442.5,232.5C 442.448,228.802 442.114,225.135 441.5,221.5C 441.125,219.302 440.458,217.302 439.5,215.5C 439.46,212.012 438.793,208.679 437.5,205.5C 437.405,203.214 436.738,201.214 435.5,199.5C 435.095,196.285 434.095,193.285 432.5,190.5C 432.598,188.447 431.931,186.78 430.5,185.5C 429.925,182.088 428.592,179.088 426.5,176.5C 426.598,174.447 425.931,172.78 424.5,171.5C 423.071,168.304 421.405,165.304 419.5,162.5C 419.267,160.938 418.6,159.605 417.5,158.5C 416.878,157.373 416.045,156.373 415,155.5C 377.81,189.85 342.977,226.184 310.5,264.5C 309.833,264.5 309.5,264.833 309.5,265.5C 308.833,265.5 308.5,265.833 308.5,266.5C 307.833,266.5 307.5,266.833 307.5,267.5C 306.833,267.5 306.5,267.833 306.5,268.5C 305.833,268.5 305.5,268.833 305.5,269.5C 304.833,269.5 304.5,269.833 304.5,270.5C 303.833,270.5 303.5,270.833 303.5,271.5C 302.833,271.5 302.5,271.833 302.5,272.5C 290.722,285.27 279.722,298.603 269.5,312.5C 253.524,331.14 238.524,350.474 224.5,370.5C 223.833,370.5 223.5,370.833 223.5,371.5C 222.833,371.5 222.5,371.833 222.5,372.5C 221.833,372.5 221.5,372.833 221.5,373.5C 218.136,377.857 214.802,382.191 211.5,386.5C 206.928,389.563 202.761,393.23 199,397.5C 198.617,396.944 198.117,396.611 197.5,396.5C 206.525,383.815 215.525,371.149 224.5,358.5C 225.167,358.5 225.5,358.167 225.5,357.5C 226.167,357.5 226.5,357.167 226.5,356.5C 227.167,356.5 227.5,356.167 227.5,355.5C 235.085,345.983 242.418,336.316 249.5,326.5C 272.604,298.617 295.937,270.95 319.5,243.5C 320.167,243.5 320.5,243.167 320.5,242.5C 321.167,242.5 321.5,242.167 321.5,241.5C 322.167,241.5 322.5,241.167 322.5,240.5C 323.167,240.5 323.5,240.167 323.5,239.5C 324.167,239.5 324.5,239.167 324.5,238.5C 325.167,238.5 325.5,238.167 325.5,237.5C 326.167,237.5 326.5,237.167 326.5,236.5C 327.167,236.5 327.5,236.167 327.5,235.5C 328.167,235.5 328.5,235.167 328.5,234.5C 329.167,234.5 329.5,234.167 329.5,233.5C 330.167,233.5 330.5,233.167 330.5,232.5C 356.491,204.675 383.325,177.675 411,151.5C 411.613,149.505 411.113,147.838 409.5,146.5C 407.727,143.94 405.727,141.607 403.5,139.5C 403.5,138.833 403.5,138.167 403.5,137.5C 406.895,134.098 410.562,131.098 414.5,128.5 Z"/></g>
<g><path style="opacity:0.04" fill="#43443f" d="M 511.5,145.5 C 511.5,147.167 511.5,148.833 511.5,150.5C 492.527,170.14 473.194,189.473 453.5,208.5C 453.167,206.5 452.833,204.5 452.5,202.5C 471.299,184.202 489.965,165.702 508.5,147C 509.527,146.487 510.527,145.987 511.5,145.5 Z"/></g>
<g><path style="opacity:0.045" fill="#43433f" d="M 409.5,146.5 C 411.113,147.838 411.613,149.505 411,151.5C 383.325,177.675 356.491,204.675 330.5,232.5C 329.833,232.5 329.5,232.833 329.5,233.5C 328.833,233.5 328.5,233.833 328.5,234.5C 327.833,234.5 327.5,234.833 327.5,235.5C 326.833,235.5 326.5,235.833 326.5,236.5C 325.833,236.5 325.5,236.833 325.5,237.5C 324.833,237.5 324.5,237.833 324.5,238.5C 323.833,238.5 323.5,238.833 323.5,239.5C 322.833,239.5 322.5,239.833 322.5,240.5C 321.833,240.5 321.5,240.833 321.5,241.5C 320.833,241.5 320.5,241.833 320.5,242.5C 319.833,242.5 319.5,242.833 319.5,243.5C 280.833,281.833 242.167,320.167 203.5,358.5C 205.5,355.167 207.5,351.833 209.5,348.5C 213.823,343.206 218.156,337.873 222.5,332.5C 223.167,332.5 223.5,332.167 223.5,331.5C 224.167,331.5 224.5,331.167 224.5,330.5C 225.167,330.5 225.5,330.167 225.5,329.5C 226.167,329.5 226.5,329.167 226.5,328.5C 287.5,267.833 348.5,207.167 409.5,146.5 Z"/></g>
<g><path style="opacity:0.916" fill="#221e20" d="M 311.5,151.5 C 313.948,151.01 315.615,151.843 316.5,154C 313.675,159.324 309.675,163.491 304.5,166.5C 301.915,165.927 300.915,164.261 301.5,161.5C 302.167,161.5 302.5,161.167 302.5,160.5C 303.167,160.5 303.5,160.167 303.5,159.5C 304.167,159.5 304.5,159.167 304.5,158.5C 305.167,158.5 305.5,158.167 305.5,157.5C 306.167,157.5 306.5,157.167 306.5,156.5C 307.167,156.5 307.5,156.167 307.5,155.5C 308.167,155.5 308.5,155.167 308.5,154.5C 309.167,154.5 309.5,154.167 309.5,153.5C 310.167,153.5 310.5,153.167 310.5,152.5C 311.167,152.5 311.5,152.167 311.5,151.5 Z"/></g>
<g><path style="opacity:0.939" fill="#211d1e" d="M 352.5,150.5 C 356.955,150.763 358.122,152.763 356,156.5C 353.116,159.685 349.949,162.518 346.5,165C 342.083,166.087 340.75,164.587 342.5,160.5C 343.167,160.5 343.5,160.167 343.5,159.5C 344.167,159.5 344.5,159.167 344.5,158.5C 345.167,158.5 345.5,158.167 345.5,157.5C 346.167,157.5 346.5,157.167 346.5,156.5C 347.167,156.5 347.5,156.167 347.5,155.5C 348.167,155.5 348.5,155.167 348.5,154.5C 349.167,154.5 349.5,154.167 349.5,153.5C 350.167,153.5 350.5,153.167 350.5,152.5C 351.167,152.5 351.5,152.167 351.5,151.5C 352.167,151.5 352.5,151.167 352.5,150.5 Z"/></g>
<g><path style="opacity:0.043" fill="#43433f" d="M 417.5,158.5 C 418.6,159.605 419.267,160.938 419.5,162.5C 369.833,212.833 319.833,262.833 269.5,312.5C 279.722,298.603 290.722,285.27 302.5,272.5C 303.167,272.5 303.5,272.167 303.5,271.5C 304.167,271.5 304.5,271.167 304.5,270.5C 305.167,270.5 305.5,270.167 305.5,269.5C 306.167,269.5 306.5,269.167 306.5,268.5C 307.167,268.5 307.5,268.167 307.5,267.5C 308.167,267.5 308.5,267.167 308.5,266.5C 309.167,266.5 309.5,266.167 309.5,265.5C 310.167,265.5 310.5,265.167 310.5,264.5C 346.167,229.167 381.833,193.833 417.5,158.5 Z"/></g>
<g><path style="opacity:0.041" fill="#43433f" d="M 74.5,161.5 C 72.5,165.833 70.5,170.167 68.5,174.5C 67.8333,174.5 67.5,174.833 67.5,175.5C 45.5064,197.327 23.3398,218.993 1,240.5C 0.333333,238.833 0.333333,237.167 1,235.5C 25.0067,210.327 49.5067,185.66 74.5,161.5 Z"/></g>
<g><path style="opacity:0.04" fill="#43443f" d="M 511.5,165.5 C 511.5,167.167 511.5,168.833 511.5,170.5C 493.527,188.807 475.527,207.14 457.5,225.5C 456.539,223.735 456.205,221.735 456.5,219.5C 456.5,219.167 456.5,218.833 456.5,218.5C 473.965,201.535 491.299,184.368 508.5,167C 509.527,166.487 510.527,165.987 511.5,165.5 Z"/></g>
<g><path style="opacity:0.924" fill="#231d20" d="M 323.5,179.5 C 324.167,179.5 324.5,179.167 324.5,178.5C 325.167,178.5 325.5,178.167 325.5,177.5C 326.167,177.5 326.5,177.167 326.5,176.5C 327.167,176.5 327.5,176.167 327.5,175.5C 328.167,175.5 328.5,175.167 328.5,174.5C 329.167,174.5 329.5,174.167 329.5,173.5C 330.167,173.5 330.5,173.167 330.5,172.5C 331.167,172.5 331.5,172.167 331.5,171.5C 332.167,171.5 332.5,171.167 332.5,170.5C 337.082,168.94 338.582,170.607 337,175.5C 333.621,179.216 329.954,182.549 326,185.5C 323.165,184.181 322.332,182.181 323.5,179.5 Z"/></g>
<g><path style="opacity:0.888" fill="#221e1f" d="M 293.5,170.5 C 296.646,170.794 297.813,172.461 297,175.5C 293.464,178.701 290.297,182.201 287.5,186C 282.939,186.382 281.772,184.548 284,180.5C 287.371,177.297 290.538,173.964 293.5,170.5 Z"/></g>
<g><path style="opacity:0.043" fill="#43433f" d="M 424.5,171.5 C 425.931,172.78 426.598,174.447 426.5,176.5C 352.5,250.167 278.5,323.833 204.5,397.5C 206.573,393.692 208.906,390.026 211.5,386.5C 214.802,382.191 218.136,377.857 221.5,373.5C 222.167,373.5 222.5,373.167 222.5,372.5C 223.167,372.5 223.5,372.167 223.5,371.5C 224.167,371.5 224.5,371.167 224.5,370.5C 291.167,304.167 357.833,237.833 424.5,171.5 Z"/></g>
<g><path style="opacity:0.979" fill="#231f20" d="M 85.5,171.5 C 84.8333,173.833 84.1667,176.167 83.5,178.5C 80.0556,185.161 77.389,192.161 75.5,199.5C 73.8848,202.623 72.8848,205.956 72.5,209.5C 70.9876,214.729 69.9876,220.062 69.5,225.5C 68.7287,228.454 68.062,231.454 67.5,234.5C 67.5628,239.203 67.2295,243.87 66.5,248.5C 66.5,250.833 66.5,253.167 66.5,255.5C 66.2367,259.6 66.5701,263.6 67.5,267.5C 67.5,269.833 67.5,272.167 67.5,274.5C 67.9843,278.232 68.651,281.899 69.5,285.5C 69.2053,287.735 69.5386,289.735 70.5,291.5C 71.0078,295.197 71.6745,298.864 72.5,302.5C 72.7959,304.403 73.4625,306.07 74.5,307.5C 74.5,308.167 74.5,308.833 74.5,309.5C 73.8826,309.389 73.3826,309.056 73,308.5C 69.2961,312.036 65.7961,315.702 62.5,319.5C 61.8333,318.167 61.1667,316.833 60.5,315.5C 59.7903,311.975 58.7903,308.642 57.5,305.5C 57.4828,303.435 57.1495,301.435 56.5,299.5C 55.8333,295.833 55.1667,292.167 54.5,288.5C 54.4828,286.435 54.1495,284.435 53.5,282.5C 52.9791,278.519 52.6458,274.519 52.5,270.5C 52.7947,268.265 52.4614,266.265 51.5,264.5C 51.5,260.167 51.5,255.833 51.5,251.5C 51.8333,248.833 52.1667,246.167 52.5,243.5C 52.4372,238.797 52.7705,234.13 53.5,229.5C 54.0916,226.873 54.4249,224.206 54.5,221.5C 55.7555,216.222 56.7555,210.889 57.5,205.5C 58.1667,205.5 58.5,205.167 58.5,204.5C 59.1667,201.5 59.8333,198.5 60.5,195.5C 60.8333,194.833 61.1667,194.167 61.5,193.5C 69.7797,186.557 77.7797,179.224 85.5,171.5 Z"/></g>
<g><path style="opacity:0.043" fill="#43433f" d="M 430.5,185.5 C 431.931,186.78 432.598,188.447 432.5,190.5C 351.5,270.833 270.833,351.5 190.5,432.5C 188.597,432.204 186.93,431.537 185.5,430.5C 266.833,348.5 348.5,266.833 430.5,185.5 Z"/></g>
<g><path style="opacity:0.04" fill="#43443f" d="M 511.5,185.5 C 511.5,187.167 511.5,188.833 511.5,190.5C 494.194,208.473 476.527,226.14 458.5,243.5C 458.5,241.167 458.5,238.833 458.5,236.5C 475.863,219.136 493.53,202.136 511.5,185.5 Z"/></g>
<g><path style="opacity:0.902" fill="#221e1f" d="M 314.5,189.5 C 318.138,188.737 319.638,190.07 319,193.5C 315.95,197.095 312.784,200.595 309.5,204C 304.522,204.769 303.355,202.936 306,198.5C 309.038,195.631 311.871,192.631 314.5,189.5 Z"/></g>
<g><path style="opacity:0.919" fill="#221e1f" d="M 277.5,197.5 C 276.833,197.5 276.5,197.833 276.5,198.5C 275.833,198.5 275.5,198.833 275.5,199.5C 274.833,199.5 274.5,199.833 274.5,200.5C 273.833,200.5 273.5,200.833 273.5,201.5C 272.833,201.5 272.5,201.833 272.5,202.5C 271.833,202.5 271.5,202.833 271.5,203.5C 270.833,203.5 270.5,203.833 270.5,204.5C 269.833,204.5 269.5,204.833 269.5,205.5C 268.833,205.5 268.5,205.833 268.5,206.5C 266.052,206.915 264.719,205.915 264.5,203.5C 266.439,200.385 268.606,197.385 271,194.5C 272.439,192.552 274.272,191.219 276.5,190.5C 278.167,190.833 279.167,191.833 279.5,193.5C 278.37,194.622 277.703,195.956 277.5,197.5 Z"/></g>
<g><path style="opacity:0.04" fill="#43433f" d="M 60.5,195.5 C 59.8333,198.5 59.1667,201.5 58.5,204.5C 57.8333,204.5 57.5,204.833 57.5,205.5C 38.8396,223.994 20.0062,242.327 1,260.5C 0.333333,258.833 0.333333,257.167 1,255.5C 20.3398,234.994 40.1731,214.994 60.5,195.5 Z"/></g>
<g><path style="opacity:0.043" fill="#43433f" d="M 435.5,199.5 C 436.738,201.214 437.405,203.214 437.5,205.5C 359.833,282.5 282.5,359.833 205.5,437.5C 203.597,437.204 201.93,436.537 200.5,435.5C 278.833,356.833 357.167,278.167 435.5,199.5 Z"/></g>
<g><path style="opacity:0.04" fill="#43443f" d="M 511.5,205.5 C 511.5,207.167 511.5,208.833 511.5,210.5C 494.527,228.14 477.194,245.473 459.5,262.5C 459.5,260.167 459.5,257.833 459.5,255.5C 476.53,238.469 493.863,221.803 511.5,205.5 Z"/></g>
<g><path style="opacity:0.931" fill="#221e1f" d="M 300.5,214.5 C 299.833,214.5 299.5,214.833 299.5,215.5C 298.833,215.5 298.5,215.833 298.5,216.5C 297.833,216.5 297.5,216.833 297.5,217.5C 296.833,217.5 296.5,217.833 296.5,218.5C 295.833,218.5 295.5,218.833 295.5,219.5C 294.833,219.5 294.5,219.833 294.5,220.5C 293.833,220.5 293.5,220.833 293.5,221.5C 292.833,221.5 292.5,221.833 292.5,222.5C 291.833,222.5 291.5,222.833 291.5,223.5C 290.833,223.5 290.5,223.833 290.5,224.5C 289.167,224.5 287.833,224.5 286.5,224.5C 286.34,222.801 286.506,221.134 287,219.5C 289.706,217.129 292.039,214.463 294,211.5C 295.789,209.771 297.956,209.104 300.5,209.5C 300.5,211.167 300.5,212.833 300.5,214.5 Z"/></g>
<g><path style="opacity:0.927" fill="#221f20" d="M 261.5,213.5 C 258.145,218.855 253.812,223.188 248.5,226.5C 246.623,225.341 246.123,223.674 247,221.5C 249.374,219.461 251.374,217.128 253,214.5C 254.389,212.773 256.056,211.439 258,210.5C 259.642,210.978 260.809,211.978 261.5,213.5 Z"/></g>
<g><path style="opacity:0.043" fill="#43433f" d="M 439.5,215.5 C 440.458,217.302 441.125,219.302 441.5,221.5C 367.833,294.5 294.5,367.833 221.5,441.5C 219.302,441.125 217.302,440.458 215.5,439.5C 290.5,365.167 365.167,290.5 439.5,215.5 Z"/></g>
<g><path style="opacity:0.043" fill="#43433f" d="M 199.5,216.5 C 194.749,222.985 189.749,229.318 184.5,235.5C 179.53,241.475 174.53,247.475 169.5,253.5C 168.833,253.5 168.5,253.833 168.5,254.5C 167.833,254.5 167.5,254.833 167.5,255.5C 166.833,255.5 166.5,255.833 166.5,256.5C 165.833,256.5 165.5,256.833 165.5,257.5C 138.833,283.833 112.167,310.167 85.5,336.5C 84.0687,335.22 83.4021,333.553 83.5,331.5C 122.167,293.167 160.833,254.833 199.5,216.5 Z"/></g>
<g><path style="opacity:0.04" fill="#43433f" d="M 54.5,221.5 C 54.4249,224.206 54.0916,226.873 53.5,229.5C 36.1728,246.66 18.6728,263.66 1,280.5C 0.143313,277.449 0.809979,274.783 3,272.5C 20.0348,255.298 37.2014,238.298 54.5,221.5 Z"/></g>
<g><path style="opacity:0.04" fill="#43443f" d="M 511.5,225.5 C 511.5,227.167 511.5,228.833 511.5,230.5C 493.86,248.806 475.86,266.806 457.5,284.5C 457.279,281.721 457.612,279.054 458.5,276.5C 475.863,259.136 493.53,242.136 511.5,225.5 Z"/></g>
<g><path style="opacity:0.92" fill="#231f20" d="M 282.5,232.5 C 279.457,237.543 275.457,241.543 270.5,244.5C 269.351,244.209 268.684,243.376 268.5,242C 268.667,241.167 268.833,240.333 269,239.5C 272.204,236.631 275.037,233.465 277.5,230C 279.134,229.506 280.801,229.34 282.5,229.5C 282.5,230.5 282.5,231.5 282.5,232.5 Z"/></g>
<g><path style="opacity:0.917" fill="#242021" d="M 243.5,232.5 C 240.794,237.386 237.461,241.886 233.5,246C 232.207,246.49 230.873,246.657 229.5,246.5C 229.586,245.504 229.252,244.671 228.5,244C 231.595,239.815 234.928,235.815 238.5,232C 240.265,231.36 241.932,231.527 243.5,232.5 Z"/></g>
<g><path style="opacity:0.043" fill="#43443f" d="M 442.5,232.5 C 442.833,232.5 443.167,232.5 443.5,232.5C 443.5,234.833 443.5,237.167 443.5,239.5C 375.167,307.167 307.167,375.167 239.5,443.5C 239.167,443.5 238.833,443.5 238.5,443.5C 236.585,443.784 234.919,443.451 233.5,442.5C 303.167,372.5 372.833,302.5 442.5,232.5 Z"/></g>
<g><path style="opacity:0.04" fill="#43443f" d="M 52.5,243.5 C 52.1667,246.167 51.8333,248.833 51.5,251.5C 34.8394,267.994 18.0061,284.327 1,300.5C 0.143313,297.449 0.809979,294.783 3,292.5C 19.3681,275.965 35.8681,259.632 52.5,243.5 Z"/></g>
<g><path style="opacity:0.979" fill="#231f20" d="M 456.5,219.5 C 456.205,221.735 456.539,223.735 457.5,225.5C 457.423,229.215 457.756,232.881 458.5,236.5C 458.5,238.833 458.5,241.167 458.5,243.5C 459.272,247.452 459.605,251.452 459.5,255.5C 459.5,257.833 459.5,260.167 459.5,262.5C 458.559,267.07 458.226,271.737 458.5,276.5C 457.612,279.054 457.279,281.721 457.5,284.5C 456.25,289.754 455.25,295.087 454.5,300.5C 453.366,303.37 452.7,306.37 452.5,309.5C 450.102,315.696 448.102,322.029 446.5,328.5C 445.833,328.5 445.5,328.833 445.5,329.5C 443.835,333.495 442.168,337.495 440.5,341.5C 440.068,342.71 439.401,343.71 438.5,344.5C 407.034,374.46 375.7,405.294 344.5,437C 345.094,437.464 345.761,437.631 346.5,437.5C 345.035,438.737 343.368,439.737 341.5,440.5C 339.046,441.227 336.713,442.227 334.5,443.5C 345.833,431.167 357.167,418.833 368.5,406.5C 370.167,405.167 371.833,403.833 373.5,402.5C 384.833,394.5 394.5,384.833 402.5,373.5C 411.595,362.985 418.928,351.318 424.5,338.5C 425.167,338.5 425.5,338.167 425.5,337.5C 427.722,333.723 429.389,329.723 430.5,325.5C 433.624,319.128 435.957,312.462 437.5,305.5C 438.578,302.598 439.244,299.598 439.5,296.5C 440.926,291.279 441.926,285.945 442.5,280.5C 443.265,277.904 443.599,275.237 443.5,272.5C 443.998,267.848 444.331,263.181 444.5,258.5C 444.5,256.167 444.5,253.833 444.5,251.5C 444.495,247.466 444.162,243.466 443.5,239.5C 443.5,237.167 443.5,234.833 443.5,232.5C 448.194,228.473 452.527,224.14 456.5,219.5 Z"/></g>
<g><path style="opacity:0.04" fill="#43443f" d="M 511.5,245.5 C 511.5,247.167 511.5,248.833 511.5,250.5C 492.194,270.473 472.527,290.14 452.5,309.5C 452.7,306.37 453.366,303.37 454.5,300.5C 472.632,282.868 490.632,265.035 508.5,247C 509.527,246.487 510.527,245.987 511.5,245.5 Z"/></g>
<g><path style="opacity:0.939" fill="#231f20" d="M 264.5,250.5 C 262.579,256.133 259.245,260.967 254.5,265C 253.181,265.195 251.847,265.028 250.5,264.5C 250.343,263.127 250.51,261.793 251,260.5C 254.05,256.905 257.216,253.405 260.5,250C 262.066,249.235 263.399,249.402 264.5,250.5 Z"/></g>
<g><path style="opacity:0.043" fill="#43443f" d="M 444.5,251.5 C 444.5,253.833 444.5,256.167 444.5,258.5C 382.167,320.167 320.167,382.167 258.5,444.5C 256.167,444.5 253.833,444.5 251.5,444.5C 315.5,379.833 379.833,315.5 444.5,251.5 Z"/></g>
<g><path style="opacity:0.932" fill="#252121" d="M 224.5,251.5 C 225.301,253.042 225.634,254.708 225.5,256.5C 223.167,259.003 221.001,261.669 219,264.5C 217.871,266.141 216.371,267.141 214.5,267.5C 212.5,267.5 211.5,266.5 211.5,264.5C 214.62,260.208 217.953,256.041 221.5,252C 222.448,251.517 223.448,251.351 224.5,251.5 Z"/></g>
<g><path style="opacity:0.04" fill="#43443f" d="M 51.5,264.5 C 52.4614,266.265 52.7947,268.265 52.5,270.5C 35.5061,287.327 18.3394,303.994 1,320.5C 0.143313,317.449 0.809979,314.783 3,312.5C 19.0348,296.298 35.2014,280.298 51.5,264.5 Z"/></g>
<g><path style="opacity:0.043" fill="#43433f" d="M 211.5,264.5 C 211.5,266.5 212.5,267.5 214.5,267.5C 212.833,269.833 210.833,271.833 208.5,273.5C 207.262,272.588 205.928,272.421 204.5,273C 200.099,277.211 196.766,282.044 194.5,287.5C 192.833,289.5 191.167,291.5 189.5,293.5C 186.509,295.123 184.176,297.457 182.5,300.5C 181.833,300.5 181.5,300.833 181.5,301.5C 180.833,301.5 180.5,301.833 180.5,302.5C 179.833,302.5 179.5,302.833 179.5,303.5C 171.5,311.167 163.5,318.833 155.5,326.5C 157.5,323.167 159.5,319.833 161.5,316.5C 165.803,311.191 170.137,305.858 174.5,300.5C 175.167,300.5 175.5,300.167 175.5,299.5C 176.167,299.5 176.5,299.167 176.5,298.5C 177.167,298.5 177.5,298.167 177.5,297.5C 188.833,286.5 200.167,275.5 211.5,264.5 Z"/></g>
<g><path style="opacity:0.041" fill="#43433f" d="M 511.5,265.5 C 511.5,267.167 511.5,268.833 511.5,270.5C 488.194,294.473 464.527,318.14 440.5,341.5C 442.168,337.495 443.835,333.495 445.5,329.5C 446.167,329.5 446.5,329.167 446.5,328.5C 467.299,308.202 487.965,287.702 508.5,267C 509.527,266.487 510.527,265.987 511.5,265.5 Z"/></g>
<g><path style="opacity:0.906" fill="#242121" d="M 245.5,270.5 C 247.104,271.287 247.771,272.62 247.5,274.5C 245.167,277.003 243.001,279.669 241,282.5C 239.549,284.464 237.716,285.797 235.5,286.5C 234.194,285.533 233.527,284.199 233.5,282.5C 235.448,279.379 237.615,276.379 240,273.5C 241.264,271.393 243.097,270.393 245.5,270.5 Z"/></g>
<g><path style="opacity:0.043" fill="#43443f" d="M 443.5,272.5 C 443.599,275.237 443.265,277.904 442.5,280.5C 388.167,334.167 334.167,388.167 280.5,442.5C 277.904,443.265 275.237,443.599 272.5,443.5C 329.167,386.167 386.167,329.167 443.5,272.5 Z"/></g>
<g><path style="opacity:0.913" fill="#231f20" d="M 208.5,273.5 C 207.031,279.166 204.031,284 199.5,288C 197.735,288.64 196.068,288.473 194.5,287.5C 196.766,282.044 200.099,277.211 204.5,273C 205.928,272.421 207.262,272.588 208.5,273.5 Z"/></g>
<g><path style="opacity:0.044" fill="#43433f" d="M 179.5,276.5 C 172.191,286.148 164.858,295.815 157.5,305.5C 156.833,305.5 156.5,305.833 156.5,306.5C 155.833,306.5 155.5,306.833 155.5,307.5C 154.833,307.5 154.5,307.833 154.5,308.5C 136.167,326.167 118.167,344.167 100.5,362.5C 99.5987,361.71 98.9321,360.71 98.5,359.5C 101.135,355.857 103.801,352.19 106.5,348.5C 107.167,348.5 107.5,348.167 107.5,347.5C 108.167,347.5 108.5,347.167 108.5,346.5C 132.167,323.167 155.833,299.833 179.5,276.5 Z"/></g>
<g><path style="opacity:0.04" fill="#43433f" d="M 53.5,282.5 C 54.1495,284.435 54.4828,286.435 54.5,288.5C 36.8395,305.994 19.0062,323.327 1,340.5C 0.143313,337.449 0.809979,334.783 3,332.5C 19.7014,315.632 36.5348,298.965 53.5,282.5 Z"/></g>
<g><path style="opacity:0.043" fill="#43433f" d="M 233.5,282.5 C 233.527,284.199 234.194,285.533 235.5,286.5C 234.167,288.5 232.5,290.167 230.5,291.5C 227.956,291.104 225.789,291.771 224,293.5C 221.908,296.681 219.575,299.681 217,302.5C 216.51,303.793 216.343,305.127 216.5,306.5C 214.167,308.167 212.167,310.167 210.5,312.5C 208.215,314.118 206.215,316.118 204.5,318.5C 203.833,318.5 203.5,318.833 203.5,319.5C 202.833,319.5 202.5,319.833 202.5,320.5C 201.833,320.5 201.5,320.833 201.5,321.5C 193.5,329.167 185.5,336.833 177.5,344.5C 179.412,340.583 181.745,336.917 184.5,333.5C 188.136,328.858 191.803,324.191 195.5,319.5C 196.167,319.5 196.5,319.167 196.5,318.5C 197.167,318.5 197.5,318.167 197.5,317.5C 198.167,317.5 198.5,317.167 198.5,316.5C 199.167,316.5 199.5,316.167 199.5,315.5C 210.833,304.5 222.167,293.5 233.5,282.5 Z"/></g>
<g><path style="opacity:0.042" fill="#43433f" d="M 511.5,285.5 C 511.5,287.167 511.5,288.833 511.5,290.5C 438.167,364.5 364.5,438.167 290.5,511.5C 288.833,511.5 287.167,511.5 285.5,511.5C 285.987,510.527 286.487,509.527 287,508.5C 315.035,480.632 342.868,452.632 370.5,424.5C 371.167,424.5 371.5,424.167 371.5,423.5C 372.167,423.5 372.5,423.167 372.5,422.5C 391.554,408.112 408.221,391.446 422.5,372.5C 423.167,372.5 423.5,372.167 423.5,371.5C 424.167,371.5 424.5,371.167 424.5,370.5C 452.632,342.868 480.632,315.035 508.5,287C 509.527,286.487 510.527,285.987 511.5,285.5 Z"/></g>
<g><path style="opacity:0.927" fill="#242021" d="M 230.5,291.5 C 230.657,292.873 230.49,294.207 230,295.5C 226.726,299.728 223.226,303.728 219.5,307.5C 218.583,306.873 217.583,306.539 216.5,306.5C 216.343,305.127 216.51,303.793 217,302.5C 219.575,299.681 221.908,296.681 224,293.5C 225.789,291.771 227.956,291.104 230.5,291.5 Z"/></g>
<g><path style="opacity:0.937" fill="#221f1f" d="M 189.5,293.5 C 190.812,294.145 191.812,295.145 192.5,296.5C 189.551,301.944 185.718,306.61 181,310.5C 178.178,308.721 177.678,306.387 179.5,303.5C 180.167,303.5 180.5,303.167 180.5,302.5C 181.167,302.5 181.5,302.167 181.5,301.5C 182.167,301.5 182.5,301.167 182.5,300.5C 184.176,297.457 186.509,295.123 189.5,293.5 Z"/></g>
<g><path style="opacity:0.043" fill="#43433f" d="M 439.5,296.5 C 439.244,299.598 438.578,302.598 437.5,305.5C 393.167,349.167 349.167,393.167 305.5,437.5C 302.63,438.634 299.63,439.3 296.5,439.5C 343.833,391.5 391.5,343.833 439.5,296.5 Z"/></g>
<g><path style="opacity:0.044" fill="#43433f" d="M 200.5,295.5 C 193.524,304.815 186.524,314.148 179.5,323.5C 178.833,323.5 178.5,323.833 178.5,324.5C 177.833,324.5 177.5,324.833 177.5,325.5C 176.833,325.5 176.5,325.833 176.5,326.5C 170.167,332.5 163.833,338.5 157.5,344.5C 158.146,342.844 158.813,341.177 159.5,339.5C 159.457,338.584 159.124,337.917 158.5,337.5C 160.167,335.5 161.833,333.5 163.5,331.5C 164.552,331.649 165.552,331.483 166.5,331C 169.629,327.227 172.629,323.394 175.5,319.5C 183.833,311.5 192.167,303.5 200.5,295.5 Z"/></g>
<g><path style="opacity:0.04" fill="#43443f" d="M 56.5,299.5 C 57.1495,301.435 57.4828,303.435 57.5,305.5C 38.8396,323.994 20.0062,342.327 1,360.5C 0.143313,357.449 0.809979,354.783 3,352.5C 20.7014,334.632 38.5348,316.965 56.5,299.5 Z"/></g>
<g><path style="opacity:0.041" fill="#43443f" d="M 511.5,305.5 C 511.5,307.167 511.5,308.833 511.5,310.5C 444.833,377.833 377.833,444.833 310.5,511.5C 308.833,511.5 307.167,511.5 305.5,511.5C 372.604,442.896 440.271,374.729 508.5,307C 509.527,306.487 510.527,305.987 511.5,305.5 Z"/></g>
<g><path style="opacity:0.945" fill="#231f20" d="M 211.5,211.5 C 195.103,230.65 179.437,250.317 164.5,270.5C 163.833,270.5 163.5,270.833 163.5,271.5C 162.833,271.5 162.5,271.833 162.5,272.5C 161.833,272.5 161.5,272.833 161.5,273.5C 160.833,273.5 160.5,273.833 160.5,274.5C 153.093,282.995 146.426,291.995 140.5,301.5C 129.032,315.962 118.365,330.962 108.5,346.5C 107.833,346.5 107.5,346.833 107.5,347.5C 106.833,347.5 106.5,347.833 106.5,348.5C 103.801,352.19 101.135,355.857 98.5,359.5C 94.5,362.5 90.5,365.5 86.5,368.5C 84.6002,366.381 82.9336,364.047 81.5,361.5C 80.9744,359.77 79.9744,358.436 78.5,357.5C 77.4242,354.352 76.0909,351.352 74.5,348.5C 73.9744,346.77 72.9744,345.436 71.5,344.5C 70.9579,341.088 69.6246,338.088 67.5,335.5C 67.5979,333.447 66.9313,331.78 65.5,330.5C 64.5075,327.177 63.5075,323.844 62.5,320.5C 62.5,320.167 62.5,319.833 62.5,319.5C 65.7961,315.702 69.2961,312.036 73,308.5C 73.3826,309.056 73.8826,309.389 74.5,309.5C 75.5,312.167 76.5,314.833 77.5,317.5C 77.4021,319.553 78.0687,321.22 79.5,322.5C 80.0749,325.912 81.4082,328.912 83.5,331.5C 83.4021,333.553 84.0687,335.22 85.5,336.5C 86.4097,339.992 88.0764,342.992 90.5,345.5C 90.2291,347.38 90.8958,348.713 92.5,349.5C 93.0722,351.255 93.9055,352.922 95,354.5C 99.7678,347.949 104.268,341.282 108.5,334.5C 109.167,334.5 109.5,334.167 109.5,333.5C 110.167,333.5 110.5,333.167 110.5,332.5C 116.192,324.482 121.858,316.482 127.5,308.5C 140.191,291.482 152.858,274.482 165.5,257.5C 166.167,257.5 166.5,257.167 166.5,256.5C 167.167,256.5 167.5,256.167 167.5,255.5C 168.167,255.5 168.5,255.167 168.5,254.5C 169.167,254.5 169.5,254.167 169.5,253.5C 174.53,247.475 179.53,241.475 184.5,235.5C 185.239,235.631 185.906,235.464 186.5,235C 194.698,226.279 203.032,218.446 211.5,211.5 Z M 108.5,334.5 C 104.268,341.282 99.7678,347.949 95,354.5C 93.9055,352.922 93.0722,351.255 92.5,349.5C 97.8333,344.5 103.167,339.5 108.5,334.5 Z"/></g>
<g><path style="opacity:0.044" fill="#43433f" d="M 127.5,308.5 C 121.858,316.482 116.192,324.482 110.5,332.5C 109.833,332.5 109.5,332.833 109.5,333.5C 108.833,333.5 108.5,333.833 108.5,334.5C 103.167,339.5 97.8333,344.5 92.5,349.5C 90.8958,348.713 90.2291,347.38 90.5,345.5C 102.5,332.833 114.833,320.5 127.5,308.5 Z"/></g>
<g><path style="opacity:0.044" fill="#43433f" d="M 227.5,308.5 C 220.418,318.316 213.085,327.983 205.5,337.5C 204.833,337.5 204.5,337.833 204.5,338.5C 203.833,338.5 203.5,338.833 203.5,339.5C 202.833,339.5 202.5,339.833 202.5,340.5C 194.833,347.833 187.167,355.167 179.5,362.5C 179.92,360.906 180.586,359.406 181.5,358C 181.257,357.098 180.923,356.265 180.5,355.5C 182.167,353.5 183.833,351.5 185.5,349.5C 186.552,349.649 187.552,349.483 188.5,349C 191.715,345.291 194.715,341.458 197.5,337.5C 207.5,327.833 217.5,318.167 227.5,308.5 Z"/></g>
<g><path style="opacity:0.925" fill="#221f20" d="M 210.5,312.5 C 211.5,312.5 212.5,312.5 213.5,312.5C 213.66,314.199 213.494,315.866 213,317.5C 209.934,321.729 206.434,325.395 202.5,328.5C 200.833,328.167 199.833,327.167 199.5,325.5C 200.63,324.378 201.297,323.044 201.5,321.5C 202.167,321.5 202.5,321.167 202.5,320.5C 203.167,320.5 203.5,320.167 203.5,319.5C 204.167,319.5 204.5,319.167 204.5,318.5C 206.215,316.118 208.215,314.118 210.5,312.5 Z"/></g>
<g><path style="opacity:0.04" fill="#43433f" d="M 60.5,315.5 C 61.1667,316.833 61.8333,318.167 62.5,319.5C 62.5,319.833 62.5,320.167 62.5,320.5C 42.173,340.66 21.673,360.66 1,380.5C 0.143313,377.449 0.809979,374.783 3,372.5C 22.0347,353.298 41.2014,334.298 60.5,315.5 Z"/></g>
<g><path style="opacity:0.901" fill="#221e1f" d="M 175.5,319.5 C 172.629,323.394 169.629,327.227 166.5,331C 165.552,331.483 164.552,331.649 163.5,331.5C 162.387,330.054 162.22,328.387 163,326.5C 165.377,322.912 167.877,319.412 170.5,316C 172.134,315.506 173.801,315.34 175.5,315.5C 175.5,316.833 175.5,318.167 175.5,319.5 Z"/></g>
<g><path style="opacity:0.043" fill="#43433f" d="M 430.5,325.5 C 429.389,329.723 427.722,333.723 425.5,337.5C 424.833,337.5 424.5,337.833 424.5,338.5C 395.5,366.833 366.833,395.5 338.5,424.5C 337.833,424.5 337.5,424.833 337.5,425.5C 333.723,427.722 329.723,429.389 325.5,430.5C 360.167,395.167 395.167,360.167 430.5,325.5 Z"/></g>
<g><path style="opacity:0.041" fill="#43443f" d="M 511.5,325.5 C 511.5,327.167 511.5,328.833 511.5,330.5C 451.5,391.167 391.167,451.5 330.5,511.5C 328.833,511.5 327.167,511.5 325.5,511.5C 385.937,449.562 446.937,388.062 508.5,327C 509.527,326.487 510.527,325.987 511.5,325.5 Z"/></g>
<g><path style="opacity:0.044" fill="#43433f" d="M 249.5,326.5 C 242.418,336.316 235.085,345.983 227.5,355.5C 226.833,355.5 226.5,355.833 226.5,356.5C 225.833,356.5 225.5,356.833 225.5,357.5C 224.833,357.5 224.5,357.833 224.5,358.5C 203.833,378.5 183.5,398.833 163.5,419.5C 162.244,419.539 161.244,419.039 160.5,418C 163.387,413.716 166.387,409.549 169.5,405.5C 170.167,405.5 170.5,405.167 170.5,404.5C 171.167,404.5 171.5,404.167 171.5,403.5C 197.5,377.833 223.5,352.167 249.5,326.5 Z"/></g>
<g><path style="opacity:0.041" fill="#43443f" d="M 65.5,330.5 C 66.9313,331.78 67.5979,333.447 67.5,335.5C 45.5064,357.327 23.3398,378.993 1,400.5C 0.143313,397.449 0.809979,394.783 3,392.5C 23.7014,371.632 44.5347,350.965 65.5,330.5 Z"/></g>
<g><path style="opacity:0.899" fill="#231f21" d="M 197.5,337.5 C 194.715,341.458 191.715,345.291 188.5,349C 187.552,349.483 186.552,349.649 185.5,349.5C 183.727,348.686 183.227,347.352 184,345.5C 186.692,342.308 189.192,338.975 191.5,335.5C 194.91,332.414 196.91,333.08 197.5,337.5 Z"/></g>
<g><path style="opacity:0.973" fill="#231f20" d="M 161.5,316.5 C 159.5,319.833 157.5,323.167 155.5,326.5C 144.364,340.63 134.03,355.297 124.5,370.5C 123.833,370.5 123.5,370.833 123.5,371.5C 122.833,371.5 122.5,371.833 122.5,372.5C 120.384,375.789 118.051,378.956 115.5,382C 116.373,383.045 117.373,383.878 118.5,384.5C 118.811,385.478 119.478,386.145 120.5,386.5C 121.5,385.167 122.5,383.833 123.5,382.5C 125.045,381.548 126.712,381.215 128.5,381.5C 128.5,383.167 128.5,384.833 128.5,386.5C 127.833,386.5 127.5,386.833 127.5,387.5C 126.833,387.5 126.5,387.833 126.5,388.5C 125.833,389.5 125.167,390.5 124.5,391.5C 121.167,395.167 117.833,398.833 114.5,402.5C 114.167,402.5 113.833,402.5 113.5,402.5C 111.5,400.167 109.5,397.833 107.5,395.5C 106.5,393.833 105.167,392.5 103.5,391.5C 101.471,389.142 99.4707,386.808 97.5,384.5C 97.1436,382.81 96.1436,381.81 94.5,381.5C 92.86,378.851 91.1933,376.184 89.5,373.5C 88.4884,372.128 87.4884,370.795 86.5,369.5C 86.5,369.167 86.5,368.833 86.5,368.5C 90.5,365.5 94.5,362.5 98.5,359.5C 98.9321,360.71 99.5987,361.71 100.5,362.5C 101.811,365.135 103.478,367.469 105.5,369.5C 106.348,371.507 107.682,372.674 109.5,373C 113.895,367.032 117.895,360.865 121.5,354.5C 122.833,352.833 124.167,351.167 125.5,349.5C 137.5,338.5 149.5,327.5 161.5,316.5 Z"/></g>
<g><path style="opacity:0.906" fill="#252122" d="M 158.5,337.5 C 159.124,337.917 159.457,338.584 159.5,339.5C 158.813,341.177 158.146,342.844 157.5,344.5C 155.832,346.34 154.332,348.34 153,350.5C 151.871,352.141 150.371,353.141 148.5,353.5C 146.896,352.713 146.229,351.38 146.5,349.5C 149.089,344.413 152.589,340.08 157,336.5C 157.383,337.056 157.883,337.389 158.5,337.5 Z"/></g>
<g><path style="opacity:0.041" fill="#43433f" d="M 71.5,344.5 C 72.9744,345.436 73.9744,346.77 74.5,348.5C 50.1732,372.66 25.6732,396.66 1,420.5C 0.143313,417.449 0.809979,414.783 3,412.5C 25.7014,389.632 48.5347,366.965 71.5,344.5 Z"/></g>
<g><path style="opacity:0.989" fill="#231f20" d="M 438.5,344.5 C 434.342,353.485 429.675,362.152 424.5,370.5C 423.833,370.5 423.5,370.833 423.5,371.5C 422.833,371.5 422.5,371.833 422.5,372.5C 408.221,391.446 391.554,408.112 372.5,422.5C 371.833,422.5 371.5,422.833 371.5,423.5C 370.833,423.5 370.5,423.833 370.5,424.5C 362.819,429.342 354.819,433.675 346.5,437.5C 345.761,437.631 345.094,437.464 344.5,437C 375.7,405.294 407.034,374.46 438.5,344.5 Z"/></g>
<g><path style="opacity:0.041" fill="#43443f" d="M 511.5,345.5 C 511.5,347.167 511.5,348.833 511.5,350.5C 458.167,404.5 404.5,458.167 350.5,511.5C 348.833,511.5 347.167,511.5 345.5,511.5C 399.27,456.229 453.604,401.396 508.5,347C 509.527,346.487 510.527,345.987 511.5,345.5 Z"/></g>
<g><path style="opacity:0.045" fill="#43433f" d="M 146.5,349.5 C 146.229,351.38 146.896,352.713 148.5,353.5C 146.833,355.5 145.167,357.5 143.5,359.5C 142.127,359.343 140.793,359.51 139.5,360C 136.123,363.931 133.123,368.098 130.5,372.5C 126.167,376.167 122.167,380.167 118.5,384.5C 117.373,383.878 116.373,383.045 115.5,382C 118.051,378.956 120.384,375.789 122.5,372.5C 123.167,372.5 123.5,372.167 123.5,371.5C 124.167,371.5 124.5,371.167 124.5,370.5C 131.833,363.5 139.167,356.5 146.5,349.5 Z"/></g>
<g><path style="opacity:0.974" fill="#231f20" d="M 184.5,333.5 C 181.745,336.917 179.412,340.583 177.5,344.5C 166.364,358.63 156.03,373.297 146.5,388.5C 145.833,388.5 145.5,388.833 145.5,389.5C 144.833,389.5 144.5,389.833 144.5,390.5C 141.858,394.148 139.191,397.815 136.5,401.5C 137.005,402.919 138.005,403.585 139.5,403.5C 139.811,404.478 140.478,405.145 141.5,405.5C 143.176,402.992 145.342,400.992 148,399.5C 150.157,400.385 150.99,402.052 150.5,404.5C 149.833,404.5 149.5,404.833 149.5,405.5C 148.833,405.5 148.5,405.833 148.5,406.5C 145.622,409.332 146.289,410.999 150.5,411.5C 152.332,412.718 153.332,412.051 153.5,409.5C 154.167,409.5 154.5,409.167 154.5,408.5C 155.167,408.5 155.5,408.167 155.5,407.5C 160.425,400.643 165.092,393.643 169.5,386.5C 171.196,384.475 172.863,382.475 174.5,380.5C 174.435,380.938 174.601,381.272 175,381.5C 186.086,369.91 197.586,358.91 209.5,348.5C 207.5,351.833 205.5,355.167 203.5,358.5C 192.032,372.962 181.365,387.962 171.5,403.5C 170.833,403.5 170.5,403.833 170.5,404.5C 169.833,404.5 169.5,404.833 169.5,405.5C 166.387,409.549 163.387,413.716 160.5,418C 161.244,419.039 162.244,419.539 163.5,419.5C 165.794,421.653 168.46,423.32 171.5,424.5C 173.05,425.441 174.716,426.107 176.5,426.5C 177.167,426.5 177.5,426.167 177.5,425.5C 182.425,418.643 187.092,411.643 191.5,404.5C 193.885,402.116 195.885,399.45 197.5,396.5C 198.117,396.611 198.617,396.944 199,397.5C 202.761,393.23 206.928,389.563 211.5,386.5C 208.906,390.026 206.573,393.692 204.5,397.5C 196.533,407.811 189.366,418.478 183,429.5C 183.671,430.252 184.504,430.586 185.5,430.5C 186.93,431.537 188.597,432.204 190.5,432.5C 193.699,433.899 197.032,434.899 200.5,435.5C 201.93,436.537 203.597,437.204 205.5,437.5C 208.763,438.482 212.097,439.149 215.5,439.5C 217.302,440.458 219.302,441.125 221.5,441.5C 225.466,442.162 229.466,442.495 233.5,442.5C 234.919,443.451 236.585,443.784 238.5,443.5C 233.86,447.473 229.527,451.806 225.5,456.5C 223.5,456.5 221.5,456.5 219.5,456.5C 215.954,455.385 212.288,454.385 208.5,453.5C 206.5,453.167 204.5,452.833 202.5,452.5C 199.275,451.193 195.941,450.193 192.5,449.5C 190.833,448.833 189.167,448.167 187.5,447.5C 184.574,446.302 181.574,445.302 178.5,444.5C 177.22,443.069 175.553,442.402 173.5,442.5C 170.744,440.796 167.744,439.463 164.5,438.5C 163.341,436.75 161.674,435.75 159.5,435.5C 157.151,433.659 154.485,432.326 151.5,431.5C 150.341,429.75 148.674,428.75 146.5,428.5C 144.469,426.478 142.135,424.811 139.5,423.5C 138.564,422.026 137.23,421.026 135.5,420.5C 133.14,418.147 130.473,416.147 127.5,414.5C 126.738,412.738 125.404,411.738 123.5,411.5C 121.833,409.167 119.833,407.167 117.5,405.5C 116.833,404.167 115.833,403.167 114.5,402.5C 117.833,398.833 121.167,395.167 124.5,391.5C 125.833,392.5 127.167,393.5 128.5,394.5C 129.167,394.5 129.5,394.167 129.5,393.5C 134.859,385.815 140.192,378.149 145.5,370.5C 146.512,369.128 147.512,367.795 148.5,366.5C 148.435,366.938 148.601,367.272 149,367.5C 160.42,355.577 172.253,344.244 184.5,333.5 Z M 153.5,409.5 C 153.332,412.051 152.332,412.718 150.5,411.5C 151.5,410.833 152.5,410.167 153.5,409.5 Z"/></g>
<g><path style="opacity:0.044" fill="#43433f" d="M 121.5,354.5 C 117.895,360.865 113.895,367.032 109.5,373C 107.682,372.674 106.348,371.507 105.5,369.5C 110.833,364.5 116.167,359.5 121.5,354.5 Z"/></g>
<g><path style="opacity:0.937" fill="#242021" d="M 180.5,355.5 C 180.923,356.265 181.257,357.098 181.5,358C 180.586,359.406 179.92,360.906 179.5,362.5C 177.14,364.865 175.14,367.532 173.5,370.5C 172.675,371.386 171.675,371.719 170.5,371.5C 168.824,370.817 168.157,369.483 168.5,367.5C 170.99,363.862 173.49,360.195 176,356.5C 177.356,355.62 178.856,355.286 180.5,355.5 Z"/></g>
<g><path style="opacity:0.041" fill="#43433f" d="M 78.5,357.5 C 79.9744,358.436 80.9744,359.77 81.5,361.5C 54.8399,387.993 28.0066,414.327 1,440.5C 0.143313,437.449 0.809979,434.783 3,432.5C 28.0347,407.298 53.2013,382.298 78.5,357.5 Z"/></g>
<g><path style="opacity:0.919" fill="#221f1f" d="M 143.5,359.5 C 143.414,360.496 143.748,361.329 144.5,362C 141.667,366.167 138.833,370.333 136,374.5C 133.189,376.18 131.356,375.513 130.5,372.5C 133.123,368.098 136.123,363.931 139.5,360C 140.793,359.51 142.127,359.343 143.5,359.5 Z"/></g>
<g><path style="opacity:0.041" fill="#43443f" d="M 511.5,365.5 C 511.5,367.167 511.5,368.833 511.5,370.5C 464.833,417.833 417.833,464.833 370.5,511.5C 368.833,511.5 367.167,511.5 365.5,511.5C 412.603,462.896 460.27,414.729 508.5,367C 509.527,366.487 510.527,365.987 511.5,365.5 Z"/></g>
<g><path style="opacity:0.045" fill="#43433f" d="M 168.5,367.5 C 168.157,369.483 168.824,370.817 170.5,371.5C 168.833,373.833 166.833,375.833 164.5,377.5C 162.097,377.393 160.264,378.393 159,380.5C 157.004,383.986 154.837,387.319 152.5,390.5C 147.833,394.5 143.5,398.833 139.5,403.5C 138.005,403.585 137.005,402.919 136.5,401.5C 139.191,397.815 141.858,394.148 144.5,390.5C 145.167,390.5 145.5,390.167 145.5,389.5C 146.167,389.5 146.5,389.167 146.5,388.5C 153.833,381.5 161.167,374.5 168.5,367.5 Z"/></g>
<g><path style="opacity:0.041" fill="#43433f" d="M 86.5,369.5 C 87.4884,370.795 88.4884,372.128 89.5,373.5C 60.1734,402.66 30.6734,431.66 1,460.5C 0.143313,457.449 0.809979,454.783 3,452.5C 30.7013,424.632 58.5347,396.965 86.5,369.5 Z"/></g>
<g><path style="opacity:0.044" fill="#43423f" d="M 145.5,370.5 C 140.192,378.149 134.859,385.815 129.5,393.5C 128.833,393.5 128.5,393.833 128.5,394.5C 127.167,393.5 125.833,392.5 124.5,391.5C 125.167,390.5 125.833,389.5 126.5,388.5C 127.167,388.5 127.5,388.167 127.5,387.5C 128.167,387.5 128.5,387.167 128.5,386.5C 134.167,381.167 139.833,375.833 145.5,370.5 Z"/></g>
<g><path style="opacity:0.031" fill="#403f3c" d="M 402.5,373.5 C 394.5,384.833 384.833,394.5 373.5,402.5C 382.833,392.5 392.5,382.833 402.5,373.5 Z"/></g>
<g><path style="opacity:0.957" fill="#231f20" d="M 164.5,377.5 C 165.473,379.068 165.64,380.735 165,382.5C 162.374,386.956 159.207,390.956 155.5,394.5C 153.45,393.923 152.45,392.59 152.5,390.5C 154.837,387.319 157.004,383.986 159,380.5C 160.264,378.393 162.097,377.393 164.5,377.5 Z"/></g>
<g><path style="opacity:0.041" fill="#43433f" d="M 94.5,381.5 C 96.1436,381.81 97.1436,382.81 97.5,384.5C 65.8401,416.993 33.6735,448.993 1,480.5C 0.143313,477.449 0.809979,474.783 3,472.5C 33.368,441.965 63.868,411.632 94.5,381.5 Z"/></g>
<g><path style="opacity:0.04" fill="#43443f" d="M 511.5,385.5 C 511.5,387.167 511.5,388.833 511.5,390.5C 471.5,431.167 431.167,471.5 390.5,511.5C 388.833,511.5 387.167,511.5 385.5,511.5C 425.937,469.563 466.937,428.063 508.5,387C 509.527,386.487 510.527,385.987 511.5,385.5 Z"/></g>
<g><path style="opacity:0.044" fill="#43433f" d="M 169.5,386.5 C 165.092,393.643 160.425,400.643 155.5,407.5C 154.833,407.5 154.5,407.833 154.5,408.5C 153.833,408.5 153.5,408.833 153.5,409.5C 152.5,410.167 151.5,410.833 150.5,411.5C 146.289,410.999 145.622,409.332 148.5,406.5C 149.167,406.5 149.5,406.167 149.5,405.5C 150.167,405.5 150.5,405.167 150.5,404.5C 156.833,398.5 163.167,392.5 169.5,386.5 Z"/></g>
<g><path style="opacity:0.042" fill="#43443f" d="M 103.5,391.5 C 105.167,392.5 106.5,393.833 107.5,395.5C 72.1735,430.66 36.6735,465.66 1,500.5C 0.143313,497.449 0.809979,494.783 3,492.5C 36.7015,458.965 70.2015,425.299 103.5,391.5 Z"/></g>
<g><path style="opacity:0.042" fill="#43433f" d="M 113.5,402.5 C 113.833,402.5 114.167,402.5 114.5,402.5C 115.833,403.167 116.833,404.167 117.5,405.5C 81.8064,440.861 46.1397,476.194 10.5,511.5C 8.83333,511.5 7.16667,511.5 5.5,511.5C 40.8046,474.528 76.8046,438.195 113.5,402.5 Z"/></g>
<g><path style="opacity:0.044" fill="#43433f" d="M 191.5,404.5 C 187.092,411.643 182.425,418.643 177.5,425.5C 176.833,425.5 176.5,425.833 176.5,426.5C 174.716,426.107 173.05,425.441 171.5,424.5C 177.833,417.5 184.5,410.833 191.5,404.5 Z"/></g>
<g><path style="opacity:0.04" fill="#43443f" d="M 511.5,405.5 C 511.5,407.167 511.5,408.833 511.5,410.5C 478.167,444.5 444.5,478.167 410.5,511.5C 408.833,511.5 407.167,511.5 405.5,511.5C 439.27,476.23 473.603,441.396 508.5,407C 509.527,406.487 510.527,405.987 511.5,405.5 Z"/></g>
<g><path style="opacity:0.041" fill="#43443f" d="M 123.5,411.5 C 125.404,411.738 126.738,412.738 127.5,414.5C 95.473,447.194 63.1396,479.527 30.5,511.5C 28.8333,511.5 27.1667,511.5 25.5,511.5C 25.9867,510.527 26.4867,509.527 27,508.5C 59.3682,476.299 91.5348,443.965 123.5,411.5 Z"/></g>
<g><path style="opacity:0.041" fill="#43433f" d="M 135.5,420.5 C 137.23,421.026 138.564,422.026 139.5,423.5C 109.806,452.861 80.1398,482.194 50.5,511.5C 48.8333,511.5 47.1667,511.5 45.5,511.5C 74.8043,480.529 104.804,450.195 135.5,420.5 Z"/></g>
<g><path style="opacity:0.039" fill="#43443f" d="M 511.5,425.5 C 511.5,427.167 511.5,428.833 511.5,430.5C 484.833,457.833 457.833,484.833 430.5,511.5C 428.833,511.5 427.167,511.5 425.5,511.5C 452.602,482.897 480.269,454.73 508.5,427C 509.527,426.487 510.527,425.987 511.5,425.5 Z"/></g>
<g><path style="opacity:0.041" fill="#43443f" d="M 146.5,428.5 C 148.674,428.75 150.341,429.75 151.5,431.5C 124.473,458.194 97.4731,484.861 70.5,511.5C 68.8333,511.5 67.1667,511.5 65.5,511.5C 65.9867,510.527 66.4867,509.527 67,508.5C 93.7016,481.965 120.202,455.299 146.5,428.5 Z"/></g>
<g><path style="opacity:0.041" fill="#43433f" d="M 159.5,435.5 C 161.674,435.75 163.341,436.75 164.5,438.5C 139.806,462.861 115.14,487.194 90.5,511.5C 88.8333,511.5 87.1667,511.5 85.5,511.5C 85.9867,510.527 86.4867,509.527 87,508.5C 111.368,484.299 135.535,459.965 159.5,435.5 Z"/></g>
<g><path style="opacity:0.041" fill="#43433f" d="M 341.5,440.5 C 318.14,464.527 294.473,488.194 270.5,511.5C 268.833,511.5 267.167,511.5 265.5,511.5C 265.987,510.527 266.487,509.527 267,508.5C 287.702,487.965 308.202,467.299 328.5,446.5C 329.167,446.5 329.5,446.167 329.5,445.5C 331.05,444.559 332.716,443.893 334.5,443.5C 336.713,442.227 339.046,441.227 341.5,440.5 Z"/></g>
<g><path style="opacity:0.041" fill="#43433f" d="M 173.5,442.5 C 175.553,442.402 177.22,443.069 178.5,444.5C 155.806,466.861 133.14,489.194 110.5,511.5C 108.833,511.5 107.167,511.5 105.5,511.5C 127.47,487.863 150.137,464.863 173.5,442.5 Z"/></g>
<g><path style="opacity:0.984" fill="#231f20" d="M 368.5,406.5 C 357.167,418.833 345.833,431.167 334.5,443.5C 332.716,443.893 331.05,444.559 329.5,445.5C 328.833,445.5 328.5,445.833 328.5,446.5C 322.029,448.102 315.696,450.102 309.5,452.5C 306.37,452.7 303.37,453.366 300.5,454.5C 295.134,455.503 289.801,456.503 284.5,457.5C 281.763,457.401 279.096,457.735 276.5,458.5C 271.786,458.353 267.119,458.686 262.5,459.5C 260.167,459.5 257.833,459.5 255.5,459.5C 251.452,459.605 247.452,459.272 243.5,458.5C 241.167,458.5 238.833,458.5 236.5,458.5C 233.214,457.793 229.881,457.46 226.5,457.5C 226.5,456.833 226.167,456.5 225.5,456.5C 229.527,451.806 233.86,447.473 238.5,443.5C 238.833,443.5 239.167,443.5 239.5,443.5C 243.481,444.021 247.481,444.354 251.5,444.5C 253.833,444.5 256.167,444.5 258.5,444.5C 263.181,444.331 267.848,443.998 272.5,443.5C 275.237,443.599 277.904,443.265 280.5,442.5C 285.959,442.008 291.292,441.008 296.5,439.5C 299.63,439.3 302.63,438.634 305.5,437.5C 312.462,435.957 319.128,433.624 325.5,430.5C 329.723,429.389 333.723,427.722 337.5,425.5C 338.167,425.5 338.5,425.167 338.5,424.5C 349.269,419.72 359.269,413.72 368.5,406.5 Z"/></g>
<g><path style="opacity:0.038" fill="#43443f" d="M 511.5,445.5 C 511.5,447.167 511.5,448.833 511.5,450.5C 491.5,471.167 471.167,491.5 450.5,511.5C 448.833,511.5 447.167,511.5 445.5,511.5C 465.935,489.564 486.935,468.064 508.5,447C 509.527,446.487 510.527,445.987 511.5,445.5 Z"/></g>
<g><path style="opacity:0.04" fill="#43443f" d="M 187.5,447.5 C 189.167,448.167 190.833,448.833 192.5,449.5C 172.14,470.527 151.473,491.194 130.5,511.5C 128.833,511.5 127.167,511.5 125.5,511.5C 125.987,510.527 126.487,509.527 127,508.5C 147.368,488.299 167.535,467.965 187.5,447.5 Z"/></g>
<g><path style="opacity:0.04" fill="#43443f" d="M 202.5,452.5 C 204.5,452.833 206.5,453.167 208.5,453.5C 189.473,473.194 170.14,492.527 150.5,511.5C 148.833,511.5 147.167,511.5 145.5,511.5C 145.987,510.527 146.487,509.527 147,508.5C 165.702,489.965 184.202,471.299 202.5,452.5 Z"/></g>
<g><path style="opacity:0.04" fill="#43443f" d="M 309.5,452.5 C 290.14,472.527 270.473,492.194 250.5,511.5C 248.833,511.5 247.167,511.5 245.5,511.5C 245.987,510.527 246.487,509.527 247,508.5C 265.035,490.632 282.868,472.632 300.5,454.5C 303.37,453.366 306.37,452.7 309.5,452.5 Z"/></g>
<g><path style="opacity:0.04" fill="#43433f" d="M 219.5,456.5 C 221.5,456.5 223.5,456.5 225.5,456.5C 226.167,456.5 226.5,456.833 226.5,457.5C 225.761,457.369 225.094,457.536 224.5,458C 206.605,476.062 188.605,493.896 170.5,511.5C 168.833,511.5 167.167,511.5 165.5,511.5C 182.803,492.53 200.803,474.197 219.5,456.5 Z"/></g>
<g><path style="opacity:0.04" fill="#43443f" d="M 284.5,457.5 C 266.806,475.86 248.806,493.86 230.5,511.5C 228.833,511.5 227.167,511.5 225.5,511.5C 242.136,493.53 259.136,475.863 276.5,458.5C 279.096,457.735 281.763,457.401 284.5,457.5 Z"/></g>
<g><path style="opacity:0.04" fill="#43443f" d="M 236.5,458.5 C 238.833,458.5 241.167,458.5 243.5,458.5C 226.14,476.527 208.473,494.194 190.5,511.5C 188.833,511.5 187.167,511.5 185.5,511.5C 202.136,493.53 219.136,475.863 236.5,458.5 Z"/></g>
<g><path style="opacity:0.04" fill="#43443f" d="M 255.5,459.5 C 257.833,459.5 260.167,459.5 262.5,459.5C 245.473,477.194 228.14,494.527 210.5,511.5C 208.833,511.5 207.167,511.5 205.5,511.5C 221.803,493.863 238.469,476.53 255.5,459.5 Z"/></g>
<g><path style="opacity:0.035" fill="#43443f" d="M 511.5,465.5 C 511.5,467.167 511.5,468.833 511.5,470.5C 498.167,484.5 484.5,498.167 470.5,511.5C 468.833,511.5 467.167,511.5 465.5,511.5C 479.266,496.232 493.6,481.398 508.5,467C 509.527,466.487 510.527,465.987 511.5,465.5 Z"/></g>
<g><path style="opacity:0.029" fill="#43443f" d="M 511.5,485.5 C 511.5,487.167 511.5,488.833 511.5,490.5C 504.833,497.833 497.833,504.833 490.5,511.5C 488.833,511.5 487.167,511.5 485.5,511.5C 493.167,501.833 501.833,493.167 511.5,485.5 Z"/></g>
<g><path style="opacity:0.009" fill="#43443f" d="M 511.5,505.5 C 511.5,507.167 511.5,508.833 511.5,510.5C 510.833,510.5 510.5,510.833 510.5,511.5C 508.833,511.5 507.167,511.5 505.5,511.5C 506.5,508.5 508.5,506.5 511.5,505.5 Z"/></g>
</svg>
